<svg width="24" height="24" viewBox="0 0 24 24" fill="none" xmlns="http://www.w3.org/2000/svg">
<path d="M12.0864 1.45117C6.19362 1.45117 1.41602 6.22717 1.41602 12.1216V22.7904H12.0896C12.824 22.7904 13.544 22.7168 14.2384 22.5744C19.1008 21.5792 22.7568 17.2784 22.7568 12.1216C22.7568 6.22717 17.9808 1.45117 12.0864 1.45117ZM12.1072 19.5184C7.88962 19.5184 4.48322 15.9872 4.68962 11.7248C4.86882 8.01277 7.87682 4.93757 11.5856 4.68317C13.7648 4.52957 15.7632 5.32797 17.2096 6.69757L16.1936 8.45757C15.1904 7.33277 13.7312 6.62237 12.1104 6.62237C8.17922 6.62237 5.20002 10.8 7.38082 14.952C7.80962 15.768 8.47362 16.4192 9.28962 16.8416C13.08 18.8064 16.8736 16.4832 17.4944 13.0736H13.5296L14.6624 11.112H19.4704C19.512 11.432 19.5376 11.7584 19.5376 12.0912C19.5376 16.1872 16.3248 19.52 12.1088 19.52L12.1072 19.5184Z" fill="#8F9090"/>
</svg>
