<svg width="24" height="24" viewBox="0 0 24 24" fill="none" xmlns="http://www.w3.org/2000/svg">
<path fill-rule="evenodd" clip-rule="evenodd" d="M8.31676 2.02909C8.19178 2.06589 4.56167 3.42207 4.4829 3.46138C4.31734 3.54403 4.18341 3.6824 4.09261 3.86451C3.99352 4.06323 4.00025 3.74352 4.00003 8.26451C3.99985 11.1615 4.00469 12.4024 4.01636 12.4591C4.02549 12.5034 4.06279 12.6016 4.09927 12.6772C4.15418 12.791 4.18538 12.8335 4.27981 12.9227C4.35218 12.991 4.42952 13.0472 4.49105 13.0759C4.58752 13.121 9.24039 14.8554 9.38643 14.9008C9.45381 14.9217 9.74443 14.9254 11.8391 14.9327C14.098 14.9405 14.2191 14.9423 14.2917 14.9689C14.5791 15.0742 14.776 15.2705 14.876 15.5514L14.9182 15.6704L14.9262 18.4896C14.9347 21.5238 14.9294 21.3402 15.0138 21.5064C15.1931 21.8597 15.5925 22.0565 15.9838 21.9846C16.0735 21.9681 19.7333 20.6051 19.8873 20.5309C19.9361 20.5073 20.0252 20.4417 20.0856 20.3849C20.2117 20.2661 20.3052 20.1061 20.3429 19.944C20.3636 19.8555 20.3657 18.9678 20.3623 11.9518L20.3584 4.05923L20.316 3.95283C20.23 3.73716 20.0718 3.55698 19.8865 3.46356C19.792 3.41596 16.1942 2.06741 16.057 2.02821C15.9264 1.99087 15.7156 1.99054 15.5814 2.02756C15.2997 2.10527 15.0808 2.31058 14.96 2.61043C14.9353 2.67178 14.933 2.86574 14.9257 5.47261C14.9184 8.06385 14.9158 8.27549 14.8914 8.35669C14.8357 8.54174 14.7065 8.7349 14.5736 8.83192C14.4625 8.91309 14.288 8.98829 14.1695 9.00618C14.0971 9.01709 13.4352 9.02091 12.1218 9.01792C10.2906 9.01378 10.1763 9.01196 10.097 8.98578C9.84785 8.90352 9.63974 8.7208 9.53814 8.49501C9.45192 8.30349 9.45519 8.4224 9.45519 5.47647C9.45519 2.47821 9.46239 2.694 9.35541 2.47603C9.25403 2.26952 9.03443 2.09229 8.79967 2.02756C8.66847 1.99138 8.44239 1.99207 8.31676 2.02909ZM4.79428 14.7804C4.68261 14.7955 4.60854 14.8201 4.48847 14.882C4.2897 14.9846 4.1301 15.1689 4.04912 15.3896L4.00741 15.5032L4.00287 17.6309C3.99963 19.1462 4.00319 19.7849 4.0153 19.8498C4.02465 19.9 4.06334 20.005 4.10127 20.0833C4.1829 20.2517 4.31948 20.3987 4.46585 20.4755C4.57032 20.5303 8.30999 21.9305 8.46192 21.9717C8.73923 22.0468 9.07752 21.969 9.29967 21.779C9.40083 21.6925 9.51112 21.525 9.5585 21.386L9.60036 21.2632L9.6045 19.1474C9.60912 16.7799 9.61494 16.9161 9.49905 16.6811C9.42578 16.5324 9.27159 16.3677 9.14014 16.2976C9.0549 16.2521 5.33298 14.8541 5.18356 14.8114C5.06847 14.7785 4.90447 14.7655 4.79428 14.7804Z" fill="#8F9090"/>
</svg>
