<svg width="24" height="24" viewBox="0 0 24 24" fill="none" xmlns="http://www.w3.org/2000/svg">
<path d="M5.79316 7.06357C6.49111 5.85547 8.03754 5.44135 9.24629 6.13877C10.4548 6.83626 10.8688 8.38094 10.1711 9.58896L5.51582 17.6466C4.81776 18.8544 3.27229 19.2678 2.06367 18.5704C0.855063 17.8729 0.440925 16.3283 1.13886 15.1202L5.79316 7.06357ZM12.2258 10.4649C12.2662 10.5503 12.3105 10.6346 12.3586 10.7179L13.0363 11.8917L12.9787 11.9923L10.6721 15.9854C10.4521 16.3664 10.5827 16.8533 10.9641 17.0733C11.3455 17.2932 11.8328 17.1623 12.0529 16.7813L13.7844 13.7853L13.9572 13.4854L14.8977 15.1144L14.9562 15.2149L14.8977 15.3145L13.551 17.6466C12.8529 18.8545 11.3075 19.2678 10.0988 18.5704C8.89012 17.8729 8.47606 16.3283 9.17402 15.1202L12.0617 10.1202L12.2258 10.4649ZM14.7531 6.13877C15.9619 5.44135 17.5083 5.85547 18.2062 7.06357L22.8605 15.1202C23.5585 16.3283 23.1443 17.8729 21.9357 18.5704C20.7271 19.2678 19.1816 18.8544 18.4836 17.6466L13.8283 9.58896C13.1306 8.38093 13.5446 6.83626 14.7531 6.13877ZM8.38105 7.63584C7.99958 7.41583 7.51136 7.54677 7.29121 7.92783L2.63691 15.9854C2.41704 16.3664 2.5476 16.8533 2.9289 17.0733C3.31037 17.2933 3.79763 17.1624 4.01777 16.7813L8.67304 8.7247C8.89314 8.34368 8.76245 7.8559 8.38105 7.63584ZM16.7082 7.92783C16.4881 7.54678 15.9998 7.41585 15.6184 7.63584C15.237 7.8559 15.1063 8.34368 15.3264 8.7247L19.9816 16.7813C20.2018 17.1624 20.689 17.2933 21.0705 17.0733C21.4518 16.8533 21.5824 16.3664 21.3625 15.9854L16.7082 7.92783Z" fill="#8F9090"/>
</svg>
