<?xml version="1.0" standalone="no"?>
<!DOCTYPE svg PUBLIC "-//W3C//DTD SVG 20010904//EN"
 "http://www.w3.org/TR/2001/REC-SVG-20010904/DTD/svg10.dtd">
<svg version="1.0" xmlns="http://www.w3.org/2000/svg"
 width="1000.000000pt" height="1000.000000pt" viewBox="0 0 1000.000000 1000.000000"
 preserveAspectRatio="xMidYMid meet">
<metadata>
Created by potrace 1.16, written by Peter Selinger 2001-2019
</metadata>
<g transform="translate(0.000000,1000.000000) scale(0.100000,-0.100000)"
fill="#000000" stroke="none">
<path d="M4773 9985 c-11 -8 -33 -35 -47 -60 -15 -24 -35 -49 -46 -55 -16 -8
-20 -5 -30 25 -19 57 -43 67 -149 59 -67 -5 -94 -4 -106 6 -9 7 -19 10 -23 6
-13 -14 32 -36 74 -36 37 0 41 -3 37 -19 -3 -13 2 -23 17 -31 28 -15 53 4 47
37 -4 22 -1 24 27 21 24 -2 35 -11 51 -40 l20 -37 -73 -68 c-39 -37 -72 -76
-72 -86 0 -11 -14 -24 -37 -33 -21 -9 -53 -30 -70 -47 l-33 -31 0 27 c0 33
-60 102 -95 111 -14 4 -25 12 -25 19 0 16 -84 87 -103 87 -24 0 -47 -46 -47
-91 0 -24 -7 -50 -15 -59 -12 -13 -13 -23 -6 -43 8 -20 6 -31 -10 -50 -30 -39
-24 -76 21 -126 22 -25 40 -47 40 -50 0 -20 -51 -31 -160 -33 -137 -3 -142 0
-155 70 -4 20 -20 60 -36 88 -40 71 -40 123 2 158 42 36 72 41 108 20 36 -21
40 -34 11 -34 -29 0 -70 -44 -70 -75 0 -53 94 -57 107 -4 5 16 11 19 34 14 32
-7 69 1 69 16 0 5 -11 7 -24 3 -37 -9 -66 4 -66 30 0 12 -14 35 -31 52 -24 23
-39 29 -73 28 -38 -1 -46 3 -60 28 -31 51 -54 59 -181 61 -98 2 -119 5 -129
20 -16 21 -26 22 -26 2 0 -31 44 -47 109 -39 57 6 61 5 61 -14 0 -21 25 -36
42 -26 5 3 7 12 4 20 -4 10 3 14 25 14 22 0 41 -10 66 -35 l35 -35 -31 -35
c-39 -45 -41 -93 -5 -171 18 -40 24 -66 20 -88 -11 -58 -16 -60 -129 -64 -97
-4 -107 -2 -138 19 -44 31 -49 38 -49 76 0 51 -38 87 -91 87 -35 1 -49 6 -67
28 -13 15 -38 30 -58 34 -22 4 -34 12 -34 23 0 30 -37 77 -71 91 -19 8 -49 25
-68 37 -22 15 -48 23 -70 22 -20 0 -50 5 -67 12 -38 15 -73 7 -112 -26 -23
-19 -37 -24 -61 -19 -57 12 -121 -33 -121 -85 0 -32 -32 -42 -112 -35 -127 10
-147 20 -84 42 33 12 76 54 126 125 23 32 27 34 42 20 9 -8 29 -13 45 -11 25
3 28 7 26 37 -1 18 -7 37 -14 42 -8 4 -10 11 -6 15 8 8 41 -7 77 -36 34 -27
109 -36 135 -17 26 20 15 31 -17 17 -25 -12 -108 2 -108 18 0 18 -63 44 -92
38 -17 -3 -51 1 -79 10 -40 13 -59 14 -111 5 -51 -9 -66 -8 -85 4 -28 19 -33
19 -33 1 0 -18 60 -39 84 -30 10 4 22 0 30 -11 15 -20 61 -17 61 5 0 11 9 14
30 11 62 -7 60 -21 -16 -122 -56 -73 -68 -83 -147 -122 -87 -42 -87 -42 -110
-102 -30 -80 -35 -88 -63 -102 -20 -10 -25 -10 -27 1 -4 16 32 91 48 101 5 3
10 22 10 41 0 29 -6 38 -35 55 -19 12 -35 25 -35 30 0 5 -22 23 -49 39 -27 17
-57 42 -66 56 -23 35 -65 30 -85 -11 -9 -16 -28 -52 -44 -78 -21 -36 -31 -68
-37 -125 -7 -76 -7 -77 27 -129 19 -29 34 -55 34 -58 0 -3 -60 -5 -134 -5
-142 0 -148 2 -160 52 -3 15 -20 49 -37 77 l-31 49 16 56 c25 86 83 112 131
60 31 -33 35 -70 6 -53 -26 17 -51 4 -51 -25 0 -29 33 -56 59 -49 11 3 24 -5
35 -21 9 -14 26 -26 37 -26 19 0 18 3 -10 29 -27 25 -31 36 -31 81 0 44 -4 56
-30 82 -17 17 -30 31 -28 32 2 1 16 10 31 20 26 16 30 16 46 2 22 -20 36 -8
16 14 -12 13 -13 22 -2 49 14 38 0 53 -47 49 -44 -4 -56 -31 -28 -61 l23 -25
-33 -19 c-18 -11 -48 -26 -66 -33 -40 -15 -66 -51 -82 -110 -10 -39 -9 -52 11
-111 22 -64 22 -68 6 -93 -13 -19 -26 -26 -50 -26 -17 -1 -62 -6 -98 -14 -63
-12 -66 -11 -75 8 -8 19 -16 21 -99 18 -88 -4 -92 -3 -178 39 -78 37 -87 44
-73 57 12 13 21 13 60 2 58 -16 123 -1 175 40 20 16 47 30 61 32 17 2 26 10
28 24 4 31 -41 64 -90 64 -37 0 -38 1 -31 28 17 61 -8 195 -40 214 -17 9 -69
-11 -82 -32 -4 -6 -24 -19 -46 -30 -26 -14 -41 -29 -45 -48 -4 -15 -11 -35
-16 -46 -9 -17 -13 -15 -48 19 -30 29 -48 38 -84 42 -54 6 -65 -8 -41 -53 8
-16 15 -36 15 -44 1 -31 41 -103 80 -141 45 -45 54 -75 18 -65 -13 3 -55 11
-94 17 -64 10 -76 9 -117 -9 l-45 -20 -12 43 c-24 85 -109 154 -190 155 -31 0
-37 5 -51 39 -14 34 -24 42 -60 51 -37 11 -48 10 -73 -4 -28 -16 -30 -16 -50
3 -17 18 -18 24 -7 47 11 25 10 30 -13 53 -14 14 -26 21 -26 14 0 -6 7 -16 15
-23 11 -9 13 -23 9 -50 -5 -32 -3 -41 15 -52 11 -7 21 -21 21 -31 0 -32 20
-57 46 -57 28 0 40 21 28 48 -7 15 -8 14 -11 -5 -5 -26 -31 -31 -39 -8 -10 25
16 45 55 45 45 0 68 -16 76 -52 5 -21 2 -29 -15 -38 -59 -31 -79 -141 -39
-207 31 -50 112 -93 177 -93 28 0 52 -4 52 -9 0 -5 -11 -28 -24 -52 -38 -70
-42 -159 -11 -241 4 -11 -1 -17 -19 -20 -21 -4 -26 0 -36 38 -20 69 -63 102
-170 130 -51 13 -101 24 -111 24 -23 0 -26 -32 -4 -50 8 -7 15 -18 15 -24 0
-40 24 -89 53 -106 l31 -19 -32 -12 c-36 -12 -113 -104 -138 -166 -15 -34 -15
-38 1 -49 11 -9 25 -10 40 -4 14 5 37 5 57 -1 48 -13 94 -11 108 6 20 24 30
18 30 -20 0 -25 6 -37 23 -46 12 -7 40 -27 61 -46 22 -18 45 -33 52 -33 6 0
15 17 19 38 4 20 13 44 20 52 7 8 18 34 25 58 9 35 8 53 -5 97 -8 30 -20 57
-25 60 -19 12 -11 36 12 33 34 -5 97 -180 98 -272 0 -37 7 -124 17 -192 l16
-124 -50 -53 c-28 -29 -60 -71 -71 -93 -47 -91 -152 -142 -235 -115 -38 13
-95 70 -121 120 -25 47 -20 75 19 110 40 35 39 35 65 21 18 -10 18 -12 3 -38
-24 -41 -11 -82 25 -82 36 0 52 17 52 52 0 26 2 28 28 21 66 -17 125 10 120
55 -3 28 -33 39 -33 12 -1 -26 -15 -40 -42 -40 -34 0 -104 20 -123 36 -61 48
-160 -10 -160 -95 0 -66 77 -168 151 -199 l44 -19 -55 -18 c-164 -53 -215
-115 -175 -212 19 -45 19 -84 1 -128 -8 -19 -11 -37 -7 -40 16 -9 34 25 39 73
3 37 9 50 26 58 13 6 21 18 21 34 0 21 -5 25 -30 25 -89 0 -36 105 73 145 245
88 266 101 370 228 24 28 47 52 53 52 6 0 8 -68 7 -179 l-3 -178 -42 28 c-58
40 -93 38 -175 -12 -37 -22 -87 -47 -110 -54 -48 -14 -62 -43 -34 -74 12 -13
13 -20 4 -29 -7 -7 -18 -12 -25 -12 -16 0 -33 -32 -33 -62 0 -13 -7 -34 -16
-46 -8 -12 -21 -44 -28 -72 -20 -75 -7 -83 136 -78 100 3 117 6 147 27 27 20
38 22 60 15 23 -9 26 -15 23 -48 -2 -25 3 -44 13 -56 12 -13 15 -28 11 -47 -6
-27 -9 -28 -67 -28 -57 0 -63 -2 -95 -38 -34 -36 -43 -70 -24 -82 17 -11 11
-31 -20 -70 -17 -22 -30 -50 -30 -66 0 -39 -39 -66 -107 -75 -56 -7 -57 -6
-90 29 -50 55 -42 126 18 157 17 10 19 8 15 -15 -6 -31 26 -65 55 -58 25 7 35
48 19 78 -11 20 -10 27 9 51 30 38 28 82 -3 90 -14 3 -31 2 -38 -2 -9 -6 -6
-10 12 -14 19 -5 24 -12 22 -30 -4 -34 -28 -57 -67 -64 -52 -10 -95 -65 -95
-121 0 -37 6 -52 33 -81 l33 -36 -34 -35 c-25 -27 -32 -43 -32 -72 2 -63 -12
-121 -32 -135 -25 -18 -6 -31 22 -16 14 7 20 21 20 43 0 44 9 53 49 53 22 -1
37 5 45 17 15 24 -8 39 -51 34 -39 -4 -42 9 -12 47 27 35 55 49 112 56 l47 6
0 -58 c0 -47 4 -60 20 -70 27 -17 25 -46 -5 -70 -37 -29 -35 -83 4 -106 34
-19 45 -67 24 -104 -24 -45 11 -98 64 -98 39 0 64 -21 83 -68 13 -34 44 -49
81 -39 13 3 35 -3 56 -16 l34 -22 -7 -60 c-5 -47 -13 -66 -34 -89 -16 -15 -43
-55 -60 -88 -43 -80 -81 -122 -135 -147 -58 -27 -79 -26 -134 5 -66 38 -91 63
-112 113 -16 36 -18 50 -9 77 14 40 25 50 72 58 l36 7 -11 -32 c-11 -28 -10
-33 12 -50 36 -30 74 -21 86 18 7 24 18 36 41 43 18 6 35 18 38 27 10 24 -2
28 -23 9 -16 -15 -29 -17 -63 -11 -24 4 -70 7 -102 8 -52 1 -62 -2 -82 -27
-33 -37 -39 -71 -23 -119 17 -53 59 -100 117 -135 l46 -26 -89 -18 c-141 -29
-163 -54 -167 -190 -3 -74 0 -87 20 -112 29 -38 28 -77 -4 -116 -18 -20 -23
-35 -17 -41 6 -6 19 4 36 29 32 46 35 95 7 137 -27 41 -25 50 11 50 38 0 54
29 35 66 -9 18 -20 23 -40 22 -27 -2 -28 0 -22 30 8 41 49 83 89 92 46 9 132
24 205 34 70 11 133 51 212 138 23 24 45 42 48 38 3 -3 1 -37 -6 -76 -7 -38
-12 -83 -12 -99 0 -16 -5 -32 -10 -35 -10 -6 -8 -23 7 -62 10 -25 -39 -13 -67
17 -34 37 -69 39 -100 5 -13 -14 -34 -25 -46 -25 -42 0 -101 -51 -133 -115
-17 -33 -31 -66 -31 -74 0 -24 -48 -115 -69 -133 -26 -22 -27 -49 -1 -71 24
-20 26 -45 5 -53 -20 -8 -28 -40 -15 -64 13 -24 42 -26 99 -5 29 10 49 11 66
5 15 -6 36 -5 57 1 18 6 49 10 68 10 29 -1 46 8 100 55 50 44 66 53 68 41 2
-10 -6 -29 -17 -43 -16 -20 -21 -41 -21 -84 0 -63 -22 -98 -50 -80 -25 16 -57
11 -87 -13 -22 -18 -37 -23 -68 -20 -46 5 -82 -21 -91 -65 -4 -20 -17 -33 -47
-46 -53 -25 -77 -45 -88 -74 -12 -30 12 -88 40 -97 18 -6 20 -12 15 -84 -5
-76 -5 -79 22 -100 15 -11 35 -21 45 -21 22 0 79 -32 79 -45 0 -5 -10 -42 -22
-82 -20 -63 -26 -72 -43 -67 -29 9 -62 44 -115 121 -29 42 -64 80 -95 100 -54
36 -70 56 -61 80 5 13 9 11 24 -7 11 -14 23 -19 35 -15 40 16 28 113 -13 102
-27 -7 -26 -2 16 58 24 35 35 61 32 79 -2 15 -7 25 -13 24 -5 -2 -8 -12 -7
-23 1 -11 -13 -45 -33 -75 -38 -59 -55 -107 -55 -157 0 -23 8 -37 30 -55 64
-48 100 -80 100 -88 0 -4 -12 -11 -26 -14 -14 -4 -37 -18 -50 -31 -24 -24 -24
-28 -18 -119 5 -71 4 -99 -6 -111 -7 -8 -10 -19 -6 -23 14 -14 36 32 36 76 0
39 2 43 20 37 15 -5 23 0 32 20 11 24 10 29 -6 41 -13 9 -24 10 -37 3 -17 -8
-19 -6 -19 20 0 20 8 36 26 50 44 35 66 27 117 -38 29 -38 58 -64 81 -72 27
-10 38 -22 51 -56 9 -23 31 -54 48 -68 l32 -25 -26 2 c-36 3 -95 -39 -115 -81
-9 -18 -23 -36 -33 -38 -19 -6 -81 -87 -81 -106 0 -20 46 -41 88 -40 21 1 46
-6 60 -17 19 -15 28 -17 47 -8 19 9 28 7 51 -11 42 -33 74 -27 128 23 l47 45
14 -23 c20 -30 27 -124 18 -211 l-8 -70 -45 -13 c-25 -7 -72 -26 -106 -42 -92
-45 -134 -39 -173 24 -27 42 -26 60 1 99 l22 30 11 -39 c16 -58 91 -85 108
-39 10 24 -8 70 -31 80 -19 8 -22 15 -17 45 4 24 1 41 -10 55 -14 19 -15 18
-9 -20 6 -45 -2 -58 -46 -68 -34 -9 -74 -69 -67 -103 4 -21 -4 -35 -38 -68
-41 -40 -42 -43 -49 -122 -3 -44 -3 -95 0 -113 5 -25 2 -37 -16 -56 -31 -33
-17 -45 16 -14 23 22 25 28 18 86 -6 59 -5 63 14 63 18 0 32 18 32 41 0 6 -10
9 -22 7 -36 -5 -27 48 16 91 l35 34 36 -31 c45 -40 86 -42 166 -6 50 23 65 25
102 18 l42 -9 8 -113 c7 -107 6 -114 -15 -145 -30 -42 -37 -47 -76 -47 -24 0
-42 -9 -64 -30 -26 -26 -30 -36 -25 -68 4 -34 1 -40 -24 -54 -21 -13 -30 -27
-35 -57 -5 -32 -11 -41 -26 -41 -43 0 -98 -51 -98 -92 0 -7 -10 -22 -22 -35
-14 -15 -25 -44 -30 -81 -21 -141 -22 -136 8 -171 23 -28 27 -41 25 -82 -2
-43 1 -53 27 -79 17 -17 40 -30 51 -30 22 0 56 -43 47 -59 -4 -5 -8 -39 -11
-75 -6 -95 -17 -109 -44 -54 -14 30 -42 60 -86 93 -36 27 -65 50 -65 51 0 1 6
14 14 30 11 19 12 33 5 46 -12 22 -52 24 -69 3 -7 -8 -16 -12 -21 -10 -12 8 0
36 30 68 22 24 26 37 26 90 0 53 -3 62 -20 65 -17 4 -18 2 -6 -12 21 -25 9
-99 -22 -135 -33 -40 -41 -65 -27 -91 8 -15 7 -25 -5 -44 -11 -16 -15 -44 -14
-87 2 -115 2 -124 -6 -146 -11 -34 11 -28 25 7 7 16 9 41 6 55 -4 15 -2 25 4
25 13 0 29 41 23 58 -3 6 -11 12 -19 12 -8 0 -14 9 -14 21 0 24 17 59 29 59 9
0 118 -84 159 -122 13 -11 38 -53 56 -92 40 -84 55 -99 123 -121 52 -17 75
-35 87 -69 5 -16 2 -17 -21 -12 -16 4 -48 21 -73 38 -36 25 -49 29 -69 22 -14
-5 -31 -20 -37 -32 -6 -13 -21 -30 -32 -38 -11 -7 -31 -33 -46 -57 -14 -24
-37 -52 -51 -61 -29 -19 -32 -47 -7 -67 47 -40 143 -89 174 -89 18 -1 52 -5
76 -9 38 -8 47 -5 95 25 28 18 57 34 63 34 13 0 7 -230 -7 -267 -5 -13 -20
-24 -41 -28 -18 -4 -50 -18 -70 -32 -32 -21 -46 -25 -88 -21 -94 9 -143 90
-84 137 38 30 55 27 48 -8 -5 -23 -2 -30 15 -36 38 -12 67 16 62 61 -1 6 10
19 24 28 24 16 35 56 15 56 -5 0 -10 -7 -10 -15 0 -21 -52 -45 -99 -45 -28 0
-48 -8 -71 -27 -26 -22 -33 -24 -41 -12 -25 37 -29 48 -19 54 5 3 10 13 10 22
0 15 -2 15 -18 0 -15 -14 -23 -15 -51 -4 -38 14 -53 0 -49 -47 4 -44 31 -56
62 -27 l24 23 15 -24 c8 -12 26 -45 39 -73 22 -45 31 -53 84 -74 l59 -24 68
24 c62 22 70 22 95 8 18 -10 28 -24 30 -44 2 -17 14 -99 29 -184 35 -212 31
-264 -31 -367 -46 -79 -64 -77 -31 3 19 45 19 96 0 161 -27 90 -113 131 -146
70 -15 -27 -13 -96 2 -114 13 -16 2 -54 -16 -54 -8 0 -30 16 -49 35 -34 34
-38 35 -110 35 -84 0 -102 -5 -116 -30 -7 -14 -3 -31 15 -67 44 -84 47 -87
131 -94 79 -6 96 -17 92 -53 -2 -13 -14 -23 -35 -28 -47 -12 -85 -62 -81 -107
2 -29 7 -37 27 -39 23 -4 111 38 181 85 54 36 70 31 70 -22 0 -38 15 -96 44
-165 4 -11 -6 -20 -39 -33 -97 -40 -140 -104 -133 -196 4 -42 1 -63 -13 -86
-11 -16 -19 -40 -19 -52 0 -25 -10 -29 -27 -12 -7 7 -19 9 -28 5 -13 -5 -16
-14 -11 -40 5 -28 3 -36 -19 -50 -24 -16 -35 -56 -15 -56 6 0 10 6 10 12 0 12
68 78 80 78 9 0 30 47 30 68 0 10 7 27 15 39 14 21 17 21 50 7 19 -8 56 -14
82 -14 92 0 151 53 155 139 1 38 4 42 22 36 76 -22 169 -36 219 -33 31 2 57 1
57 -3 0 -4 -19 -20 -42 -36 -51 -34 -88 -100 -88 -158 0 -23 -7 -50 -15 -61
-18 -24 -19 -50 -1 -57 16 -6 133 38 158 60 16 14 20 12 45 -17 15 -18 43 -39
63 -47 19 -8 45 -24 57 -35 55 -51 93 8 71 112 -7 30 -12 59 -13 63 0 8 61 47
113 72 17 8 32 21 32 28 0 20 -71 84 -112 102 -21 8 -68 15 -105 16 l-68 1 62
30 c90 43 185 55 272 34 73 -18 97 -15 106 14 10 32 -7 50 -63 66 -47 14 -53
18 -36 25 12 4 39 9 61 10 34 3 47 -3 84 -35 24 -21 61 -46 81 -57 78 -40 128
-118 128 -199 0 -47 -4 -55 -46 -100 -47 -50 -97 -80 -134 -80 -26 0 -80 52
-80 77 0 37 14 45 48 27 43 -21 72 -11 72 25 0 33 -14 47 -50 53 -16 2 -24 9
-21 18 12 45 11 71 -3 99 -13 24 -23 31 -46 31 -20 0 -30 -5 -30 -15 0 -8 9
-15 20 -15 33 0 43 -34 29 -93 -7 -29 -21 -61 -31 -73 -31 -35 -23 -81 21
-125 58 -58 107 -54 194 18 58 48 78 75 87 117 5 29 8 25 35 -54 22 -62 41
-96 71 -127 45 -48 69 -53 134 -27 40 16 92 15 148 -2 12 -3 22 -2 22 3 0 15
-47 33 -86 33 -28 0 -36 5 -44 25 -7 18 -17 25 -35 25 -30 0 -43 -25 -26 -51
10 -17 8 -19 -16 -20 -44 -2 -57 1 -79 22 -24 22 -33 43 -99 212 -51 135 -65
155 -140 212 -29 22 -63 53 -75 68 l-22 28 180 -3 c117 -2 178 -7 174 -13 -3
-5 -16 -25 -29 -44 -33 -48 -29 -77 22 -161 24 -41 47 -88 51 -105 12 -55 46
-72 78 -39 17 16 36 11 36 -10 0 -20 34 -46 60 -46 12 0 38 -9 56 -21 20 -12
42 -18 53 -14 11 3 22 1 26 -5 8 -13 52 -13 60 0 4 6 7 60 7 120 0 100 -2 113
-26 154 -21 37 -24 49 -16 71 9 24 14 26 48 20 29 -5 42 -2 52 9 13 17 37 20
64 10 12 -5 16 -21 16 -66 0 -57 2 -63 36 -94 38 -36 54 -41 83 -22 15 9 25 7
52 -10 45 -28 69 -39 99 -46 34 -7 51 -39 57 -105 5 -52 3 -58 -25 -84 -18
-18 -45 -31 -69 -34 -34 -4 -43 -1 -71 27 -18 17 -32 35 -32 39 0 4 16 5 35 3
29 -4 36 0 46 22 9 20 9 29 -1 41 -14 17 -61 20 -77 4 -7 -7 -20 -4 -44 10
-19 12 -44 21 -56 21 -25 0 -48 -33 -39 -56 8 -20 26 -8 26 17 0 10 6 19 14
19 25 0 76 -50 76 -76 0 -13 15 -38 35 -59 29 -28 43 -35 75 -35 49 0 85 16
105 47 l16 24 40 -36 c32 -28 48 -36 77 -35 57 2 116 -11 129 -28 16 -20 31
-6 17 16 -6 9 -30 21 -54 25 -39 8 -42 11 -37 35 7 34 -8 62 -33 62 -22 0 -36
-37 -25 -69 8 -27 -14 -28 -47 -1 -33 26 -58 79 -58 124 l0 36 53 0 c41 0 58
5 72 20 24 27 43 25 67 -5 12 -16 30 -25 47 -25 31 0 71 25 71 44 0 16 70 28
85 15 5 -5 23 -9 40 -9 39 0 68 29 67 67 0 35 25 73 48 73 36 0 64 35 65 81 0
24 7 57 15 72 14 29 15 29 79 22 51 -6 69 -12 83 -31 11 -13 49 -39 86 -59 86
-45 129 -86 159 -151 l24 -53 -27 -53 c-34 -68 -68 -105 -122 -128 -34 -15
-49 -17 -70 -9 -43 17 -62 39 -62 75 0 33 1 33 26 22 24 -11 29 -9 50 15 13
16 24 34 24 42 0 17 -38 45 -60 45 -9 0 -20 14 -25 32 -10 32 -39 58 -51 46
-3 -4 1 -14 10 -23 26 -26 30 -62 11 -101 -12 -25 -15 -47 -10 -77 10 -59 27
-81 74 -97 38 -12 45 -11 98 11 49 21 64 34 100 86 41 61 53 64 53 13 0 -54
24 -125 54 -157 29 -32 38 -35 111 -44 86 -9 107 -6 144 22 33 26 78 24 118
-7 45 -34 57 -21 15 17 -40 36 -101 40 -147 9 -41 -27 -50 -25 -50 11 0 23 -6
34 -21 39 -31 12 -70 -11 -67 -38 4 -34 -50 -30 -86 6 -23 22 -31 45 -46 122
-16 90 -23 135 -24 171 -1 26 -60 106 -125 170 l-61 61 55 -6 c30 -3 81 -9
113 -12 32 -4 60 -10 63 -15 2 -4 18 -3 35 3 16 6 32 8 35 6 6 -7 -17 -68 -26
-68 -15 0 -40 -31 -40 -49 0 -10 14 -33 30 -51 17 -19 28 -40 26 -47 -3 -7 7
-32 22 -56 20 -34 42 -51 92 -75 36 -18 75 -32 86 -32 12 0 27 -7 34 -15 7 -8
18 -15 26 -15 7 0 29 -14 49 -31 38 -33 47 -33 97 3 14 10 21 8 42 -11 28 -26
53 -25 71 4 11 17 10 29 -5 74 -14 42 -16 58 -7 72 8 14 8 30 -1 64 -7 25 -12
59 -12 76 0 23 -14 47 -56 95 -53 60 -55 64 -32 64 14 0 33 -9 43 -20 14 -16
31 -20 77 -20 72 0 93 -15 78 -55 -13 -35 -13 -35 12 -75 14 -21 22 -52 23
-79 0 -34 6 -48 28 -67 16 -13 37 -24 47 -24 13 0 27 -17 44 -55 29 -60 48
-75 96 -75 22 0 40 9 59 29 25 27 30 28 95 24 60 -4 71 -1 92 18 13 12 24 31
24 42 0 31 39 87 61 87 11 0 33 -7 49 -15 15 -8 42 -16 59 -17 64 -5 19 -74
-98 -152 -48 -31 -78 -60 -100 -95 -25 -42 -36 -51 -58 -51 -24 1 -25 2 -10
11 20 12 22 40 5 57 -29 29 -105 1 -92 -33 9 -23 -4 -18 -56 20 -46 34 -110
48 -110 25 0 -5 13 -10 28 -10 15 0 46 -13 68 -29 49 -36 116 -61 166 -61 33
0 41 5 65 43 53 83 93 112 93 67 0 -11 13 -34 28 -51 l29 -32 84 11 c71 9 88
8 107 -4 29 -19 42 -10 19 14 -12 12 -32 16 -62 15 -39 -1 -44 1 -42 19 2 25
-24 44 -48 34 -13 -5 -16 -13 -11 -36 5 -27 3 -30 -19 -30 -36 0 -65 33 -65
74 0 28 6 38 33 54 44 28 83 71 94 106 6 20 19 32 47 41 21 7 51 26 67 41 l29
28 0 -25 c0 -31 50 -93 90 -109 16 -7 30 -18 30 -24 0 -16 85 -86 104 -86 22
0 46 52 46 98 0 23 6 45 15 52 11 9 14 22 9 46 -5 25 -1 40 16 61 28 36 20 66
-33 120 -40 41 -40 43 -22 57 29 22 95 29 193 23 91 -5 98 -9 108 -67 4 -19
22 -67 41 -106 39 -82 38 -110 -9 -149 -36 -31 -97 -34 -121 -7 -22 25 -22 27
10 29 53 3 83 80 42 106 -24 15 -68 0 -81 -28 -9 -19 -16 -23 -35 -19 -28 7
-73 -3 -73 -16 0 -6 11 -8 24 -4 35 8 66 -4 66 -27 0 -10 12 -33 28 -50 23
-26 35 -31 73 -31 39 0 49 -4 60 -25 28 -53 59 -64 185 -66 97 -2 118 -5 128
-20 7 -9 16 -17 20 -17 13 0 5 20 -16 40 -20 18 -31 20 -78 15 -51 -6 -56 -5
-65 17 -12 27 -51 32 -49 6 1 -14 -6 -18 -28 -18 -22 0 -40 10 -65 36 l-33 36
30 34 c36 42 40 96 10 163 -20 43 -26 116 -12 137 4 7 52 15 112 19 104 7 106
7 148 -21 37 -25 42 -32 42 -67 0 -56 46 -101 98 -95 31 4 41 0 68 -29 19 -20
41 -33 56 -33 20 0 27 -6 32 -31 7 -35 56 -89 82 -89 10 0 28 -10 41 -22 22
-21 47 -27 179 -44 35 -5 46 -2 75 23 29 25 40 29 77 25 53 -5 88 16 109 66
20 48 41 63 78 55 17 -3 51 -7 76 -8 26 -2 55 -7 65 -13 16 -9 14 -12 -17 -25
-32 -13 -73 -55 -137 -137 -19 -23 -20 -23 -37 -6 -20 20 -54 18 -68 -5 -7
-11 -5 -25 6 -47 14 -29 14 -32 0 -32 -9 0 -32 12 -52 27 -44 34 -147 46 -157
19 -4 -9 -3 -20 1 -24 4 -4 10 -1 12 6 9 23 86 14 124 -14 48 -36 77 -46 100
-34 14 8 27 6 50 -5 22 -12 55 -16 117 -15 48 1 97 -1 110 -5 30 -10 28 8 -2
25 -15 7 -38 10 -55 7 -23 -5 -31 -3 -31 8 0 11 -11 15 -36 15 -28 0 -35 -3
-30 -15 7 -19 -29 -20 -62 -1 l-23 12 59 80 c72 97 80 103 168 143 75 34 104
68 118 137 8 35 29 58 64 69 23 7 23 7 7 -32 -8 -21 -24 -50 -35 -65 -35 -47
-21 -97 30 -113 11 -3 20 -12 20 -20 0 -7 20 -25 44 -39 25 -14 56 -40 69 -57
33 -42 67 -35 92 18 10 21 29 52 42 70 19 24 26 51 33 119 9 86 9 87 -20 129
-48 70 -50 69 90 66 69 -1 132 -4 142 -7 9 -3 19 -17 22 -32 4 -15 20 -54 37
-87 30 -56 31 -63 20 -104 -25 -88 -88 -116 -135 -60 -32 37 -36 65 -7 48 25
-16 51 -4 51 23 0 34 -14 50 -46 51 -17 1 -37 12 -47 25 -10 12 -28 22 -39 22
-18 0 -17 -3 11 -29 26 -24 31 -37 31 -73 0 -42 18 -81 48 -104 12 -9 9 -15
-17 -33 -31 -22 -33 -22 -52 -6 -15 15 -19 15 -19 4 0 -8 5 -20 10 -25 8 -8 7
-19 -2 -39 -11 -24 -10 -29 7 -41 23 -17 57 -18 73 -2 17 17 15 35 -9 56 l-20
20 33 19 c18 11 48 26 66 33 40 16 67 53 83 112 11 39 10 52 -4 90 -20 51 -22
109 -5 126 7 7 25 12 40 12 16 0 92 12 169 26 170 31 294 31 328 0 19 -17 91
-136 91 -150 0 -3 -16 -6 -35 -6 -44 0 -97 -21 -137 -55 -16 -14 -41 -25 -54
-25 -65 0 -19 -77 52 -87 l39 -5 1 -72 c2 -101 12 -144 39 -162 22 -14 27 -12
99 36 63 44 76 57 82 86 9 48 20 51 55 14 34 -35 67 -50 109 -50 37 0 41 16
19 65 -10 22 -19 50 -19 63 0 12 -8 34 -17 49 -9 14 -27 48 -40 75 l-23 50 53
-8 c77 -13 118 -10 156 9 19 9 35 16 36 15 1 -2 7 -24 14 -49 25 -90 103 -149
198 -149 27 0 33 -4 33 -20 0 -12 11 -32 25 -45 19 -20 34 -25 74 -25 27 0 53
4 56 10 4 6 13 5 26 -3 17 -10 19 -19 15 -49 -5 -30 -2 -42 14 -58 15 -15 20
-16 20 -5 0 7 -7 18 -16 23 -13 7 -14 13 -5 30 16 30 14 40 -14 64 -14 12 -25
29 -25 39 0 46 -39 66 -68 37 -17 -17 -15 -38 3 -38 8 0 15 7 15 15 0 8 7 15
16 15 11 0 14 -8 12 -27 -3 -25 -7 -28 -47 -31 -83 -6 -106 49 -46 112 32 35
35 42 35 101 0 58 -3 68 -32 100 -43 50 -101 77 -165 79 -29 0 -53 2 -53 4 0
2 12 24 28 50 24 42 27 56 25 127 -1 44 -3 94 -5 110 -2 24 1 30 16 30 13 0
22 -13 33 -45 18 -56 59 -96 115 -110 24 -6 66 -18 94 -26 87 -24 111 -14 75
32 -12 15 -21 38 -21 53 0 14 -9 45 -19 67 l-19 42 47 51 c27 29 58 74 71 102
21 44 22 51 9 65 -12 11 -22 12 -41 5 -35 -13 -41 -4 -17 28 11 15 17 34 14
43 -10 25 -90 32 -149 14 -45 -14 -51 -14 -62 2 -8 9 -14 21 -14 26 0 16 -64
106 -75 106 -13 0 -63 -53 -91 -95 -14 -23 -19 -48 -19 -107 0 -43 -1 -78 -2
-78 -2 0 -15 24 -30 53 -21 40 -28 73 -34 147 -4 52 -11 132 -15 177 l-7 83
42 43 c23 24 56 67 74 97 57 95 170 143 248 106 37 -18 110 -102 120 -140 8
-30 -14 -81 -41 -96 -32 -17 -66 -9 -61 15 2 11 4 36 5 55 1 31 -2 35 -25 38
-32 4 -59 -21 -59 -53 0 -22 -2 -23 -35 -14 -27 8 -43 6 -71 -7 -30 -15 -35
-21 -32 -48 3 -35 20 -38 28 -5 3 12 14 25 25 29 23 8 92 -10 148 -39 47 -24
84 -14 122 31 33 38 40 69 26 111 -17 50 -108 146 -154 161 l-39 13 83 29 c58
20 95 40 122 66 38 36 39 38 32 90 -9 78 -10 170 0 197 6 18 5 23 -5 19 -16
-5 -38 -62 -39 -100 -1 -17 -7 -28 -15 -28 -22 0 -38 -27 -31 -51 6 -18 12
-20 41 -16 33 6 34 5 34 -26 0 -18 -7 -43 -16 -55 -15 -22 -102 -72 -125 -72
-20 0 -212 -81 -241 -101 -15 -11 -42 -41 -60 -67 -33 -49 -86 -102 -101 -102
-7 0 -7 360 1 360 1 0 21 -14 44 -30 57 -42 89 -39 178 15 41 24 89 47 105 51
54 11 73 47 40 74 -21 17 -19 23 14 42 22 12 32 27 37 55 4 21 13 47 20 58 8
11 14 29 14 42 0 12 5 33 11 47 22 47 1 56 -124 56 -100 0 -114 -2 -154 -26
-65 -38 -111 -19 -90 37 9 23 8 32 -7 48 -10 11 -16 31 -14 48 3 26 6 28 41
25 60 -5 105 15 133 58 21 31 23 42 15 59 -16 30 -13 47 14 79 14 17 25 42 25
56 0 43 39 73 103 81 48 6 60 4 86 -14 33 -24 55 -77 45 -107 -7 -21 -54 -74
-64 -74 -4 0 -5 13 -2 29 3 21 -2 33 -19 44 -41 29 -80 -16 -55 -65 10 -19 9
-27 -5 -48 -37 -54 -27 -100 22 -100 25 0 25 16 -1 23 -12 3 -20 14 -20 25 0
24 54 72 80 72 25 0 77 51 86 84 9 38 -10 97 -41 126 l-25 24 31 32 c27 27 32
42 34 86 3 69 14 110 33 125 9 7 12 16 8 20 -14 15 -41 -15 -52 -57 -10 -42
-12 -44 -50 -44 -35 -1 -39 -4 -39 -26 0 -22 4 -25 38 -25 26 0 37 -4 37 -15
0 -44 -70 -90 -137 -90 l-38 0 0 56 c0 39 -5 59 -16 67 -24 18 -34 57 -15 57
19 0 46 38 46 66 0 13 -14 35 -33 51 -35 29 -38 51 -22 130 9 40 -21 73 -65
73 -41 0 -80 27 -80 55 0 34 -32 56 -76 54 -25 -2 -50 4 -68 16 -27 18 -28 22
-24 81 3 53 8 66 29 83 14 11 36 41 50 68 49 98 87 141 154 174 62 30 63 30
96 13 79 -40 121 -76 140 -122 33 -77 10 -135 -57 -144 -31 -4 -32 -4 -27 33
5 33 2 39 -24 53 -27 13 -32 13 -52 0 -12 -8 -21 -26 -21 -40 0 -17 -5 -24
-19 -24 -23 0 -79 -45 -69 -55 3 -4 18 1 32 10 25 17 37 17 136 0 20 -4 52 -1
74 7 33 11 43 21 59 60 l19 46 -29 59 c-22 46 -40 66 -86 98 -66 45 -73 38 58
65 43 9 68 21 91 44 29 29 32 38 39 123 6 82 5 95 -12 120 -11 15 -23 36 -26
46 -8 22 8 65 34 93 11 12 16 24 11 28 -16 9 -62 -49 -69 -87 -4 -28 0 -46 21
-81 14 -24 26 -46 26 -48 0 -2 -14 -3 -31 -3 -41 0 -57 -24 -43 -62 8 -23 16
-28 38 -26 27 2 28 1 23 -35 -10 -59 -40 -76 -169 -101 -63 -11 -126 -21 -140
-21 -34 0 -112 -53 -179 -122 -31 -32 -59 -58 -61 -58 -4 0 3 64 21 179 5 35
7 77 4 92 -5 28 -5 29 25 18 17 -6 38 -21 47 -35 20 -31 49 -31 87 1 16 14 38
25 48 25 42 0 105 57 138 124 18 36 32 71 32 78 0 20 39 94 60 113 22 19 27
60 9 70 -23 15 -27 50 -8 63 11 8 19 25 19 42 0 39 -33 48 -100 26 -38 -12
-55 -14 -70 -6 -14 8 -32 8 -58 0 -20 -5 -52 -10 -70 -10 -27 0 -47 -12 -97
-55 -34 -30 -65 -55 -68 -55 -9 0 5 44 20 62 8 9 15 41 17 75 2 73 18 95 59
80 22 -7 37 -6 63 6 19 9 34 21 34 27 0 6 15 8 40 4 50 -8 86 13 98 59 7 26
19 37 63 59 85 42 102 97 48 151 -30 30 -31 34 -25 90 9 85 -16 126 -77 127
-12 1 -35 11 -50 24 l-28 23 20 54 c12 30 21 64 21 77 0 53 75 2 142 -98 29
-43 66 -86 83 -96 46 -26 75 -55 75 -76 0 -22 -16 -24 -24 -3 -8 22 -33 18
-51 -9 -19 -29 -5 -75 25 -83 26 -7 26 -7 -10 -57 -31 -42 -44 -96 -25 -102 6
-2 10 9 11 25 1 16 15 48 32 72 32 44 62 125 62 167 0 16 -14 32 -47 55 -26
17 -58 42 -71 55 l-24 23 43 22 c56 28 75 64 59 113 -12 36 -10 115 4 147 5 9
4 17 -1 17 -15 0 -33 -47 -33 -85 0 -25 -4 -33 -13 -29 -18 7 -40 -20 -35 -43
2 -12 13 -18 33 -18 41 -1 44 -28 7 -65 -43 -42 -64 -38 -109 20 -24 31 -56
58 -85 72 -26 13 -47 30 -48 38 0 21 -38 82 -63 102 l-22 18 25 0 c39 0 87 35
110 80 11 22 26 40 33 40 11 0 87 91 87 105 0 15 -70 45 -106 45 -24 0 -47 6
-54 14 -9 11 -18 13 -37 5 -21 -8 -33 -5 -63 16 -44 31 -59 27 -118 -29 l-43
-41 -20 24 c-16 20 -19 39 -19 147 0 138 -3 132 81 152 25 7 66 23 90 37 43
24 103 33 124 17 26 -18 55 -67 55 -93 0 -15 -11 -40 -25 -56 l-24 -28 -1 32
c0 36 -20 60 -56 69 -55 14 -75 -58 -27 -96 23 -18 27 -27 24 -65 -2 -32 1
-45 11 -45 9 0 13 14 13 42 0 39 2 43 27 46 39 5 78 58 78 108 1 33 6 43 35
64 19 14 38 36 44 50 15 40 21 144 11 181 -8 28 -7 39 11 62 26 35 18 46 -11
17 -19 -19 -21 -31 -18 -83 2 -37 -1 -62 -7 -62 -20 -1 -35 -17 -35 -37 0 -15
5 -19 20 -15 36 9 26 -46 -15 -88 -20 -19 -39 -35 -43 -35 -5 0 -21 14 -37 30
-37 38 -88 40 -165 4 -56 -26 -117 -27 -138 -1 -11 14 -21 227 -11 227 4 0 16
16 28 35 17 30 26 35 56 35 20 0 47 7 60 16 27 17 49 72 39 97 -4 10 5 26 26
44 22 20 31 37 32 61 1 24 5 32 20 32 36 0 79 31 94 67 9 20 25 48 36 64 12
16 22 47 24 71 1 24 8 57 15 74 15 38 6 78 -26 110 -21 21 -24 31 -19 64 9 58
-33 119 -83 120 -12 0 -27 8 -32 18 -12 23 -2 177 14 199 11 14 14 12 24 -20
12 -35 51 -75 124 -127 32 -23 34 -27 20 -42 -8 -9 -13 -29 -11 -45 4 -34 37
-43 74 -19 35 24 32 -2 -7 -58 -38 -53 -50 -124 -25 -145 21 -17 33 -7 16 14
-18 22 -4 79 31 128 25 34 30 49 25 76 -3 19 -1 42 5 53 16 30 21 99 10 147
-7 35 -6 51 5 72 17 33 17 39 4 39 -16 0 -42 -59 -35 -81 4 -11 0 -25 -9 -35
-22 -22 -20 -55 4 -61 11 -3 20 -9 20 -13 0 -17 -23 -70 -30 -70 -8 0 -97 65
-155 113 -17 14 -42 54 -59 93 -34 83 -58 107 -128 129 -54 17 -88 45 -88 72
0 20 45 10 80 -18 45 -35 70 -41 98 -23 13 9 27 24 29 35 3 10 14 21 24 24 11
4 29 25 40 47 11 22 37 55 57 73 35 32 35 34 19 58 -9 14 -26 29 -38 32 -11 4
-40 19 -62 35 -31 20 -63 30 -122 38 l-80 10 -58 -35 c-32 -19 -60 -33 -63
-30 -3 3 -1 67 3 142 l8 138 42 12 c22 7 54 21 70 32 45 32 63 35 114 18 48
-16 89 -54 89 -82 0 -20 -55 -73 -75 -73 -13 0 -14 4 -5 21 9 15 8 24 -1 35
-26 31 -79 4 -79 -40 0 -12 -11 -33 -25 -46 -25 -23 -33 -50 -16 -50 5 0 12 8
16 18 7 25 47 42 95 42 29 0 48 8 72 29 l34 29 22 -34 c19 -29 20 -35 7 -40
-8 -4 -15 -12 -15 -20 0 -18 9 -18 32 3 14 13 21 14 30 5 20 -20 48 -14 58 14
15 40 12 53 -16 66 -23 11 -29 10 -46 -12 -23 -28 -26 -25 -64 58 -21 46 -31
55 -88 84 l-65 32 -69 -23 c-112 -36 -111 -37 -146 170 -34 211 -34 335 0 384
12 17 24 47 28 68 7 38 20 48 29 23 3 -8 3 -39 0 -69 -7 -73 2 -116 32 -151
14 -17 28 -41 31 -55 10 -46 13 -51 32 -51 27 0 62 53 62 95 l0 35 56 -6 c31
-4 71 -2 92 4 20 6 49 13 64 17 46 9 44 38 -8 118 -55 83 -59 87 -96 87 -40 0
-42 14 -7 51 36 38 49 68 49 109 0 47 -1 47 -162 -17 -20 -9 -53 -33 -74 -54
-48 -49 -72 -53 -48 -8 18 35 13 123 -12 194 -17 51 -17 55 1 55 29 0 113 49
133 77 25 37 42 88 42 129 0 28 4 34 20 34 12 0 32 11 45 25 20 19 25 34 25
73 0 26 -5 53 -11 59 -8 8 -5 17 10 32 18 18 24 19 46 9 23 -10 29 -8 53 15
14 15 22 27 16 27 -6 0 -19 -9 -28 -19 -15 -16 -21 -17 -47 -7 -28 10 -33 9
-52 -16 -13 -15 -34 -28 -52 -30 -24 -2 -31 -8 -33 -29 -3 -27 20 -55 38 -44
15 9 12 25 -5 25 -8 0 -15 7 -15 16 0 11 8 14 28 12 23 -3 27 -8 30 -41 7 -78
-50 -113 -99 -61 -69 74 -161 73 -230 -3 -40 -42 -60 -90 -62 -144 -2 -55 -9
-59 -61 -28 -45 26 -130 35 -195 19 -57 -13 -58 -13 -63 14 -2 15 7 21 44 32
54 16 93 57 107 112 36 136 41 161 35 176 -8 20 -11 20 -41 -4 -14 -11 -36
-20 -49 -20 -38 0 -74 -22 -91 -54 l-16 -31 -9 31 c-9 34 -30 56 -107 108 -53
36 -97 53 -107 43 -3 -3 -7 -50 -10 -105 -3 -80 -1 -102 11 -112 24 -20 18
-30 -18 -30 -28 0 -39 -7 -68 -47 -19 -25 -40 -54 -47 -64 -17 -22 -8 -39 21
-39 12 0 40 -12 62 -25 49 -30 122 -33 180 -6 53 24 58 24 61 6 3 -18 -16 -29
-111 -68 -56 -23 -94 -30 -190 -37 -66 -5 -158 -14 -203 -20 l-84 -11 -48 45
c-26 24 -65 53 -87 64 -44 23 -93 74 -119 124 -21 41 -15 129 12 159 10 12 41
39 67 60 58 46 93 50 136 13 51 -43 35 -103 -19 -74 -35 19 -70 5 -70 -28 0
-36 17 -52 53 -52 24 0 28 -3 22 -17 -16 -43 -15 -69 5 -101 16 -27 26 -33 48
-30 16 2 27 9 27 18 0 9 -8 14 -21 12 -32 -4 -47 38 -29 87 7 21 11 41 9 44
-3 3 7 22 21 42 17 26 23 45 19 59 -19 59 -67 96 -127 96 -60 0 -178 -101
-194 -167 l-9 -38 -29 83 c-32 93 -80 157 -123 167 -17 3 -49 -1 -77 -11 -47
-15 -98 -15 -152 2 -13 3 -23 2 -23 -4 0 -15 65 -38 116 -41 7 -1 14 -10 17
-22 4 -16 12 -20 34 -17 25 3 28 7 27 36 -2 31 0 32 36 32 62 0 76 -23 173
-284 23 -62 66 -113 165 -194 28 -24 52 -48 52 -53 0 -6 -65 -9 -179 -7 l-178
3 28 42 c42 61 39 94 -21 188 -27 44 -50 89 -50 100 0 43 -39 58 -73 28 -17
-15 -21 -16 -25 -4 -9 27 -51 61 -74 61 -13 1 -34 7 -48 15 -14 8 -36 14 -51
15 -14 0 -30 5 -36 11 -17 17 -60 3 -66 -21 -3 -11 -3 -63 -1 -117 4 -81 9
-105 30 -140 17 -30 23 -50 18 -68 -6 -24 -9 -25 -48 -20 -32 5 -45 3 -55 -9
-15 -17 -48 -21 -70 -7 -9 6 -11 18 -6 40 9 43 -11 97 -46 121 -30 22 -48 25
-90 15 -19 -5 -33 0 -56 19 -17 14 -43 26 -57 26 -40 0 -73 39 -82 95 -8 59 2
91 39 118 50 38 118 22 148 -36 9 -15 7 -17 -16 -11 -18 4 -32 1 -45 -11 -26
-23 -25 -40 1 -59 18 -12 27 -13 53 -2 27 11 34 10 56 -5 54 -37 100 -28 100
22 0 25 -20 25 -27 -1 -3 -11 -13 -20 -23 -20 -22 0 -70 47 -70 69 -1 46 -63
101 -113 101 -34 0 -63 -14 -100 -48 l-27 -26 -16 22 c-20 29 -71 55 -92 47
-23 -9 -122 15 -129 31 -8 21 -23 17 -23 -6 0 -24 28 -40 71 -40 30 0 31 -2
26 -29 -5 -21 -1 -36 13 -53 20 -23 20 -23 36 -3 8 11 14 32 11 48 -8 56 67
11 92 -56 6 -16 11 -43 11 -60 0 -32 0 -32 -48 -29 -40 3 -52 -1 -75 -22 -33
-31 -53 -33 -62 -7 -3 10 -19 24 -35 31 -25 10 -34 10 -56 -5 -15 -9 -29 -26
-31 -36 -6 -22 -60 -26 -95 -8 -43 23 -98 -12 -98 -62 0 -36 -26 -79 -49 -79
-9 0 -27 -7 -40 -16 -18 -13 -22 -24 -19 -58 2 -28 -4 -52 -17 -74 -20 -32
-20 -32 -80 -26 -46 5 -66 13 -88 34 -16 15 -52 40 -80 55 -86 46 -138 94
-164 151 l-24 53 30 58 c51 100 131 154 198 132 36 -11 50 -30 53 -69 3 -39 1
-43 -15 -30 -24 20 -62 4 -74 -30 -9 -26 -7 -34 9 -50 11 -11 28 -20 38 -20
10 0 23 -15 34 -40 9 -23 23 -40 32 -40 21 0 20 14 0 31 -13 11 -15 23 -9 64
19 132 4 184 -61 205 -31 11 -45 10 -91 -6 -57 -20 -92 -53 -128 -124 l-18
-35 -21 92 c-29 127 -52 151 -162 164 -74 8 -82 7 -127 -16 -62 -32 -92 -31
-134 1 -19 14 -37 23 -40 20 -12 -12 41 -56 80 -67 34 -9 43 -7 82 15 56 33
60 33 60 -5 0 -42 23 -56 61 -37 21 10 28 20 27 36 -4 34 50 30 86 -6 28 -27
40 -75 76 -294 5 -33 23 -60 94 -143 9 -11 32 -33 50 -48 19 -15 31 -30 29
-33 -3 -2 -60 3 -127 11 -67 9 -131 13 -141 10 -34 -11 -26 40 10 67 38 28 40
66 5 96 -14 12 -25 31 -25 43 0 12 -12 40 -27 64 -21 32 -44 50 -94 74 -37 17
-76 31 -87 31 -11 0 -25 7 -32 15 -7 8 -18 15 -25 15 -7 0 -29 14 -50 30 -45
35 -49 36 -75 10 -25 -25 -34 -25 -69 1 -58 43 -91 -14 -57 -96 11 -27 12 -42
5 -65 -8 -21 -8 -39 0 -61 6 -18 11 -47 11 -65 0 -25 12 -47 54 -96 46 -53 52
-64 36 -66 -11 -2 -33 7 -49 19 -23 17 -39 21 -69 16 -55 -7 -93 18 -80 52 11
32 2 74 -22 96 -14 12 -17 25 -13 55 5 32 1 43 -20 64 -14 14 -34 26 -45 26
-19 0 -62 49 -62 72 -1 31 -50 68 -90 68 -12 0 -36 -14 -53 -31 -30 -30 -34
-31 -90 -25 -71 7 -114 -11 -122 -52 -8 -37 -37 -93 -51 -99 -6 -2 -34 5 -63
17 -28 11 -61 20 -71 20 -45 0 -8 64 66 115 61 42 123 101 162 154 13 17 32
31 43 31 24 0 24 -9 2 -26 -19 -14 -11 -38 18 -57 21 -13 74 13 73 36 -2 24 7
22 67 -18 52 -36 89 -42 97 -16 3 9 -2 11 -18 6 -16 -5 -35 2 -74 29 -48 33
-130 66 -166 66 -9 0 -25 -7 -37 -15z m-4234 -358 c36 -18 63 -60 71 -112 7
-43 5 -47 -17 -56 -42 -16 -85 -10 -129 18 -54 35 -70 69 -55 116 18 54 64 66
130 34z m9022 -5 c47 -39 14 -141 -55 -173 -23 -10 -53 -19 -68 -19 -66 0 -63
113 5 188 26 28 85 30 118 4z m-8647 -162 c81 -20 206 -76 206 -92 0 -21 -67
-48 -118 -48 -54 0 -116 -24 -141 -54 -19 -23 -24 -20 -45 24 -26 54 -58 82
-103 89 -57 9 -57 41 -1 74 53 32 98 34 202 7z m8322 -39 c53 -24 59 -35 43
-74 -39 -98 -112 -132 -185 -86 -54 33 -124 35 -243 5 -58 -14 -107 -29 -110
-32 -10 -10 93 -93 133 -107 l40 -13 -36 -22 c-20 -12 -41 -35 -48 -52 -13
-31 -11 -192 3 -206 4 -4 38 8 75 27 55 28 78 34 131 34 61 1 65 2 74 28 10
31 19 33 41 12 8 -8 22 -15 31 -15 10 0 37 -12 61 -27 l43 -28 1 -90 c0 -50 9
-137 20 -195 11 -58 21 -119 22 -136 1 -32 -93 -210 -136 -257 -24 -26 -162
-77 -208 -77 -14 0 -46 15 -70 33 -58 44 -76 98 -60 177 14 66 47 100 97 100
33 0 34 -1 28 -33 -6 -40 15 -62 52 -53 18 5 25 13 25 31 0 23 3 25 50 25 52
0 70 15 70 59 0 32 -17 25 -23 -9 -6 -27 -11 -30 -42 -30 -20 0 -52 7 -72 15
-41 17 -115 20 -143 5 -16 -9 -22 -5 -34 19 -17 32 -34 41 -76 41 -32 0 -50
-23 -50 -63 0 -32 20 -48 69 -54 38 -5 39 -6 30 -37 -23 -80 -4 -152 55 -203
20 -18 36 -34 36 -37 0 -2 -15 -8 -32 -11 -91 -20 -158 -89 -158 -163 0 -28 6
-52 16 -63 9 -10 19 -39 21 -64 5 -38 1 -52 -21 -83 -28 -41 -32 -52 -17 -52
5 0 23 21 40 47 27 41 31 53 25 90 -5 35 -3 43 10 43 19 0 38 33 30 53 -8 22
-40 27 -63 10 -20 -13 -21 -12 -21 20 0 43 42 100 90 121 19 9 72 25 118 35
200 47 238 70 315 185 50 77 57 72 57 -37 0 -52 -3 -122 -6 -156 -6 -54 -9
-61 -28 -61 -12 1 -32 7 -46 15 -34 19 -75 19 -133 -2 -63 -23 -118 -70 -169
-147 -22 -33 -52 -73 -65 -87 -15 -16 -27 -44 -30 -70 -3 -24 -14 -55 -24 -68
-22 -27 -25 -74 -6 -89 6 -5 44 -13 82 -17 39 -4 78 -11 87 -16 12 -7 27 -5
47 6 17 8 51 15 77 15 45 0 50 3 123 75 73 73 99 91 87 59 -3 -9 -6 -20 -6
-24 0 -5 -20 -34 -45 -64 -50 -62 -54 -75 -25 -101 14 -13 17 -22 10 -35 -7
-14 -19 -16 -64 -12 -51 4 -57 2 -86 -26 -25 -25 -30 -39 -30 -76 0 -34 -6
-51 -25 -72 -19 -21 -25 -38 -25 -74 0 -38 -5 -51 -28 -73 -24 -23 -36 -27
-90 -27 -85 0 -112 18 -112 74 0 46 5 55 40 79 32 22 37 21 43 -4 8 -30 42
-21 43 11 0 14 9 38 19 53 14 22 16 35 9 55 -11 32 -30 27 -25 -6 4 -31 -25
-72 -51 -72 -29 0 -86 -37 -94 -62 -14 -46 -6 -102 18 -122 15 -12 19 -20 11
-23 -7 -2 -27 -14 -45 -27 -31 -21 -33 -25 -34 -86 0 -64 -17 -112 -52 -153
-8 -9 -12 -20 -9 -24 11 -10 45 26 67 72 16 34 25 42 40 38 25 -7 50 13 50 39
0 23 -38 39 -62 26 -15 -7 -18 -4 -18 22 0 35 33 60 106 80 36 10 51 10 82 -2
51 -19 55 -58 12 -112 -36 -47 -40 -100 -10 -139 23 -29 80 -51 110 -42 17 6
20 2 20 -27 0 -19 6 -42 13 -52 9 -12 12 -36 9 -67 -4 -45 -2 -51 31 -84 25
-25 44 -35 66 -35 20 0 31 -5 31 -14 0 -29 41 -66 81 -72 l39 -7 0 -49 c0 -54
-17 -102 -53 -150 -14 -18 -39 -61 -56 -94 -16 -34 -42 -71 -57 -83 -37 -29
-99 -44 -160 -39 -43 4 -61 12 -103 48 -60 49 -84 89 -75 124 8 34 72 76 115
76 34 0 35 -1 31 -33 -2 -22 2 -38 12 -46 24 -20 60 14 52 49 -3 20 0 28 17
35 21 10 41 60 31 77 -9 15 -24 -2 -24 -27 0 -34 -26 -44 -98 -38 -47 4 -67 2
-86 -11 -31 -20 -37 -20 -30 -2 3 7 -2 30 -10 50 -14 33 -19 36 -54 36 -48 0
-62 -16 -65 -70 -1 -46 18 -70 58 -70 18 0 20 -5 17 -34 -2 -19 3 -47 12 -64
17 -33 129 -132 149 -132 24 0 -10 -17 -70 -35 -66 -19 -143 -81 -143 -116 0
-9 -11 -39 -24 -66 -27 -52 -39 -154 -20 -160 14 -5 24 29 24 86 0 43 1 44 19
27 18 -16 20 -16 40 5 28 31 28 77 -1 88 -21 7 -20 9 14 47 33 35 53 45 214
99 195 65 187 60 259 176 11 18 29 35 40 39 20 8 20 5 17 -164 -2 -94 -6 -173
-8 -175 -7 -8 -63 21 -84 44 -35 38 -73 41 -124 11 -25 -14 -51 -26 -59 -26
-8 0 -22 -10 -33 -21 -10 -12 -39 -30 -63 -40 -42 -19 -43 -21 -38 -54 5 -31
3 -34 -21 -37 -26 -3 -27 -6 -33 -71 -4 -47 -12 -77 -27 -97 -27 -36 -28 -52
-2 -75 16 -14 25 -16 47 -7 57 21 81 22 127 2 35 -15 52 -17 72 -10 14 6 47
11 74 12 43 2 50 -1 76 -32 16 -19 29 -37 28 -42 -1 -4 -2 -18 -2 -29 -2 -20
-6 -21 -44 -14 -77 13 -100 10 -126 -20 -20 -23 -23 -37 -21 -88 2 -53 0 -62
-18 -70 -26 -11 -45 -47 -45 -82 0 -32 -58 -74 -118 -85 -33 -6 -42 -4 -59 14
-32 35 -44 75 -30 108 10 24 47 57 52 46 17 -32 28 -44 49 -46 43 -5 48 50 6
64 -19 6 -18 8 11 34 36 34 39 50 11 75 -21 19 -42 13 -22 -7 7 -7 12 -19 12
-28 0 -16 -46 -56 -92 -79 -34 -18 -62 -74 -53 -109 3 -14 15 -38 26 -53 l19
-27 -36 -36 c-33 -33 -36 -40 -29 -74 3 -20 7 -59 8 -87 2 -27 10 -63 19 -80
l17 -30 1 25 c0 15 -5 31 -11 37 -6 6 -9 21 -7 34 2 19 8 23 26 21 13 -2 30 2
38 8 35 30 -4 82 -45 60 -28 -14 -31 -13 -31 14 0 14 11 38 25 55 21 24 36 31
81 37 35 4 70 17 97 35 53 35 61 20 13 -25 -55 -51 -45 -116 21 -145 37 -16
75 -65 67 -85 -3 -9 -17 -16 -30 -16 -30 0 -44 -27 -44 -82 0 -24 -5 -60 -11
-81 -13 -49 7 -77 58 -77 20 0 41 -8 53 -20 22 -22 24 -29 11 -49 -8 -12 -13
-12 -35 2 -34 23 -50 21 -110 -7 -56 -27 -86 -71 -86 -127 0 -20 -12 -45 -35
-73 -19 -24 -35 -52 -35 -63 0 -27 28 -50 72 -58 24 -5 39 -14 43 -26 8 -23 1
-21 102 -23 45 -1 85 -5 89 -9 15 -15 52 -6 77 18 27 28 108 85 120 85 4 0 -2
-19 -14 -42 -20 -39 -20 -42 -4 -54 14 -11 16 -25 9 -117 l-7 -105 -37 5 c-42
6 -82 -12 -119 -51 -29 -31 -93 -35 -146 -11 -49 24 -70 88 -45 136 15 28 100
27 125 -1 18 -20 17 -20 -7 -20 -15 0 -29 7 -33 18 -6 16 -7 16 -17 -1 -15
-27 4 -42 51 -40 24 1 44 -4 51 -12 7 -8 16 -12 21 -9 18 11 -50 92 -87 104
-58 19 -134 -7 -134 -47 0 -29 -19 -11 -26 25 -8 48 -52 129 -82 153 -28 22
-101 26 -120 7 -19 -19 -15 -66 7 -78 25 -13 51 -13 51 0 0 6 -6 10 -12 10
-26 0 -40 17 -33 39 10 33 66 29 103 -9 28 -28 40 -52 72 -155 21 -67 68 -125
117 -147 54 -24 94 -26 155 -8 59 18 97 6 118 -35 16 -34 16 -120 -1 -141 -19
-23 -67 -43 -89 -37 -26 7 -68 -14 -75 -36 -3 -9 -18 -22 -35 -28 -19 -7 -31
-20 -36 -39 -4 -15 -18 -37 -32 -49 -18 -16 -26 -32 -26 -58 -1 -27 -5 -37
-17 -37 -26 0 -77 -29 -99 -57 -37 -48 -21 -105 36 -129 37 -16 37 -34 1 -34
-71 -1 -99 -103 -42 -149 14 -10 22 -20 20 -23 -3 -2 -7 -41 -11 -85 l-5 -80
32 -27 c21 -18 40 -26 56 -23 16 3 27 -3 39 -21 16 -24 16 -34 3 -111 -8 -46
-19 -86 -25 -88 -6 -2 -19 13 -29 34 -23 49 -86 115 -157 164 -58 40 -84 71
-73 89 3 5 11 7 18 4 7 -2 21 2 31 9 28 20 14 47 -24 47 -27 0 -30 3 -30 33 0
32 -23 77 -33 67 -3 -3 -1 -28 5 -55 5 -28 9 -68 9 -89 -1 -48 17 -77 70 -115
l40 -29 -31 -7 c-16 -4 -39 -19 -51 -33 -18 -24 -20 -35 -15 -92 4 -36 12 -82
18 -102 10 -33 9 -41 -7 -58 -20 -23 -16 -34 9 -24 22 9 31 49 18 90 -11 36
-8 44 20 44 22 0 43 41 34 65 -4 13 -15 16 -36 13 -27 -4 -30 -2 -30 23 0 32
16 47 58 55 42 9 85 -23 124 -92 16 -30 38 -59 48 -64 10 -5 21 -21 24 -35 5
-18 23 -33 67 -55 53 -27 59 -33 47 -47 -7 -9 -32 -25 -56 -35 -24 -11 -73
-47 -110 -82 -37 -34 -84 -74 -104 -89 -45 -33 -50 -68 -15 -92 22 -14 193
-52 282 -62 37 -4 45 -1 92 42 47 42 54 45 74 33 20 -12 21 -18 15 -108 -3
-52 -6 -116 -6 -142 0 -40 -3 -48 -22 -53 -13 -4 -57 -23 -97 -42 -64 -30 -83
-34 -129 -31 -69 6 -102 36 -109 100 -5 40 -2 46 22 62 15 10 45 21 65 23 47
7 80 -22 80 -68 0 -17 4 -28 10 -24 19 12 11 65 -15 90 -34 34 -99 34 -149 0
-20 -14 -39 -25 -41 -25 -1 0 -6 22 -10 49 -11 83 -64 144 -123 144 -52 0 -81
-12 -88 -37 -7 -29 11 -66 31 -66 18 0 19 5 3 29 -28 45 29 68 90 37 36 -18
48 -43 71 -144 23 -96 56 -161 91 -179 34 -17 149 -16 180 2 53 30 134 7 146
-41 4 -15 1 -57 -6 -95 -8 -41 -11 -98 -7 -146 6 -78 12 -97 82 -268 20 -49
46 -112 57 -140 29 -71 28 -140 -1 -203 -22 -46 -28 -52 -55 -52 -46 0 -78 21
-103 65 -28 49 -29 95 -3 127 33 42 36 122 10 240 -13 57 -27 108 -32 113 -15
16 -97 -84 -104 -127 -8 -46 -18 -48 -39 -8 -27 52 -55 63 -157 62 -113 -2
-124 -13 -78 -82 27 -40 40 -89 40 -151 0 -52 2 -59 19 -59 28 0 36 -18 17
-39 -9 -10 -16 -27 -16 -38 0 -30 -8 -32 -43 -15 -49 25 -223 22 -374 -6 -66
-12 -129 -19 -139 -15 -46 17 -211 116 -231 138 -23 26 -73 169 -73 207 1 27
51 97 83 115 30 17 130 16 172 -1 40 -17 55 -42 55 -91 0 -32 -2 -35 -18 -26
-10 6 -29 7 -41 4 -18 -5 -22 -12 -19 -42 3 -30 7 -36 28 -39 23 -3 25 -6 22
-43 -5 -50 11 -69 56 -69 40 0 34 16 -8 22 -34 4 -37 42 -11 118 17 48 19 69
12 101 -5 22 -12 43 -15 46 -3 3 9 15 27 27 39 27 58 80 35 103 -15 15 -77 21
-96 9 -5 -3 -13 -26 -16 -51 -7 -43 -8 -45 -34 -38 -82 23 -174 -4 -214 -63
-13 -18 -26 -34 -30 -34 -3 0 -9 17 -13 38 -13 77 -76 143 -146 156 -29 5 -48
1 -84 -19 -62 -32 -87 -32 -140 5 -42 29 -72 28 -37 -2 47 -39 75 -50 116 -45
36 5 43 3 51 -16 15 -33 52 -34 67 -2 10 23 10 29 -5 40 -25 18 -8 25 37 15
41 -9 80 -40 101 -80 7 -14 26 -80 43 -146 51 -196 59 -210 162 -278 106 -70
99 -77 -77 -69 -82 3 -152 10 -158 14 -6 6 -4 21 4 42 48 114 -7 241 -139 322
-25 15 -62 43 -83 61 -21 20 -48 34 -62 34 -26 0 -77 20 -106 41 -9 7 -27 9
-42 5 -21 -5 -27 -14 -32 -44 -3 -20 -11 -68 -17 -105 -9 -53 -9 -73 0 -88 7
-10 12 -40 12 -65 0 -44 4 -50 77 -125 42 -43 74 -82 70 -85 -10 -11 -69 18
-107 52 -49 43 -67 47 -91 23 -27 -27 -64 -17 -54 14 10 32 8 83 -5 106 -16
30 -67 54 -107 49 -25 -3 -37 0 -44 13 -12 22 -73 43 -105 35 -19 -5 -30 1
-54 26 -26 29 -29 41 -30 94 0 47 5 67 21 88 29 37 81 36 120 -3 34 -35 36
-47 8 -56 -30 -10 -20 -39 16 -43 17 -2 37 -10 47 -19 19 -17 79 -14 86 4 2 9
-5 11 -27 7 -40 -8 -67 15 -81 67 -22 82 -116 116 -177 65 l-29 -25 -13 35
c-18 51 -50 68 -111 60 -49 -7 -83 5 -142 46 -9 7 -20 9 -24 5 -9 -9 32 -42
79 -63 29 -13 36 -21 31 -36 -8 -25 13 -48 42 -48 28 0 43 42 24 65 -10 13 -9
15 12 15 35 0 54 -18 78 -73 53 -126 -12 -208 -103 -131 -43 36 -109 34 -148
-5 -23 -23 -29 -39 -29 -70 0 -36 -3 -41 -22 -41 -13 0 -36 -7 -52 -15 -18
-10 -41 -13 -66 -9 -65 11 -130 -42 -130 -106 0 -11 -8 -23 -17 -27 -33 -11
-63 -46 -69 -79 -5 -28 -12 -35 -38 -40 -43 -8 -103 9 -146 42 -19 14 -64 41
-100 59 -78 39 -104 66 -125 124 -33 94 -15 161 63 234 61 57 97 62 137 20 27
-30 49 -85 42 -106 -2 -6 -19 -12 -37 -12 -36 0 -57 -22 -46 -50 5 -13 15 -16
41 -13 23 3 35 0 35 -8 0 -7 10 -20 22 -28 25 -18 68 -21 68 -6 0 6 -11 10
-25 10 -38 0 -60 40 -45 84 12 37 6 78 -18 113 -14 22 -13 23 15 23 40 0 70
24 75 61 7 44 -20 69 -71 69 -42 0 -71 -26 -71 -62 0 -14 -6 -16 -29 -12 -21
4 -40 0 -63 -14 -42 -26 -110 -98 -131 -137 l-15 -30 -23 78 c-20 65 -31 85
-66 118 -23 21 -51 39 -62 39 -11 0 -35 9 -54 20 -37 22 -167 39 -167 22 0
-14 25 -22 68 -22 20 0 44 -5 52 -10 10 -6 11 -10 3 -10 -22 0 -14 -37 12 -54
34 -22 66 -20 72 4 8 28 24 25 60 -13 25 -25 43 -68 84 -192 29 -88 63 -175
76 -193 14 -18 48 -46 77 -62 29 -17 58 -41 64 -55 l12 -25 -173 2 c-171 3
-172 3 -170 25 2 12 18 43 38 68 42 55 43 80 10 129 -14 20 -25 45 -25 55 0
10 -10 26 -21 37 -12 10 -30 38 -40 62 -19 43 -43 54 -67 30 -12 -12 -17 -4
-24 37 -3 17 -13 21 -68 25 -43 3 -79 13 -107 29 -36 21 -44 22 -58 11 -17
-14 -17 -23 1 -108 4 -22 0 -47 -14 -80 -20 -45 -20 -50 -5 -95 17 -53 11
-117 -12 -117 -8 0 -20 -9 -28 -21 -11 -14 -23 -20 -43 -17 -26 3 -28 7 -27
38 1 19 5 49 9 66 4 24 0 37 -19 60 -23 26 -32 29 -89 30 -57 1 -66 4 -95 32
-22 22 -41 32 -62 32 -26 0 -36 8 -61 47 -40 62 -40 103 1 137 38 32 86 34
117 6 28 -27 28 -34 -3 -48 -33 -15 -35 -58 -3 -68 16 -5 27 -1 40 16 l18 23
25 -27 c13 -14 31 -26 39 -26 16 0 46 26 46 41 0 15 -17 10 -24 -6 -3 -8 -12
-15 -20 -15 -15 0 -76 70 -76 88 0 6 -14 22 -31 36 -40 34 -91 35 -134 2 l-32
-25 -21 29 c-26 35 -82 56 -111 41 -11 -6 -39 -11 -63 -11 -45 0 -98 -18 -98
-34 0 -4 10 -5 23 -1 12 4 37 9 56 12 30 5 33 4 26 -16 -7 -24 18 -61 41 -61
22 0 38 39 26 65 -20 44 23 49 68 8 24 -22 33 -41 40 -87 6 -36 20 -74 35 -95
32 -45 14 -53 -24 -12 -23 24 -37 31 -67 31 -41 0 -84 -31 -84 -60 0 -9 -11
-22 -25 -28 -14 -6 -25 -16 -25 -22 0 -6 -10 -10 -22 -8 -17 2 -24 12 -28 33
-5 30 -5 30 -108 44 -67 9 -107 10 -113 4 -5 -5 -12 -27 -16 -49 -6 -44 -28
-74 -53 -74 -27 0 -30 10 -15 41 20 38 19 56 -9 112 -18 39 -32 53 -67 69 -24
10 -51 17 -61 15 -10 -3 -40 12 -69 34 -29 21 -54 39 -55 39 -2 0 -14 -4 -28
-10 -18 -7 -27 -19 -31 -47 -4 -23 -17 -47 -32 -59 -17 -14 -25 -31 -24 -48 2
-30 1 -34 -4 -96 -2 -25 -6 -56 -10 -70 -4 -20 5 -38 50 -93 49 -61 64 -87 50
-87 -2 0 -21 8 -41 18 -33 15 -38 15 -46 2 -8 -13 -24 -14 -86 -9 -43 4 -92 4
-109 1 -34 -5 -45 12 -23 34 16 16 -6 76 -45 121 -39 46 -45 89 -21 148 15 36
59 65 98 65 29 0 42 -9 58 -39 18 -36 -2 -111 -31 -111 -16 0 -10 39 7 48 12
7 13 11 5 17 -25 15 -41 -4 -41 -49 0 -31 -5 -46 -16 -50 -8 -3 -12 -10 -9
-16 10 -16 85 30 101 62 30 58 3 158 -42 158 -28 0 -4 18 33 25 121 22 211
137 154 194 -27 27 -56 27 -75 -1 -20 -28 -20 -48 -1 -48 8 0 15 8 15 18 0 26
10 33 31 21 30 -15 25 -70 -8 -101 -34 -31 -85 -58 -111 -58 -28 0 -135 -56
-161 -84 -13 -14 -31 -49 -41 -78 -15 -47 -16 -58 -4 -98 15 -50 18 -99 6
-117 -13 -20 -79 -43 -124 -43 -54 1 -79 31 -86 102 -4 39 -10 54 -33 70 -15
11 -30 31 -33 43 -3 13 -19 28 -37 35 -17 8 -42 24 -55 37 -15 15 -35 23 -57
23 -31 0 -35 4 -46 40 -18 62 -51 94 -96 94 -29 0 -43 -7 -61 -28 -13 -15 -24
-34 -24 -42 0 -8 -6 -14 -14 -14 -8 0 -13 11 -14 26 0 67 -94 100 -142 49 -13
-14 -31 -23 -39 -21 -9 2 -46 7 -83 11 -63 6 -69 5 -93 -19 -15 -15 -25 -36
-25 -54 0 -34 -37 -73 -65 -67 -11 2 -53 9 -93 16 -39 7 -72 16 -72 21 0 5 14
17 31 26 65 36 111 74 142 119 78 113 122 142 129 86 2 -20 9 -29 26 -31 22
-3 24 0 26 43 1 14 9 21 26 23 52 6 70 13 70 27 0 17 -12 19 -26 5 -6 -6 -45
-12 -86 -13 -86 -4 -114 -17 -149 -73 l-23 -38 -8 30 c-14 57 -36 67 -130 61
-46 -4 -100 -9 -120 -13 -25 -4 -38 -2 -38 5 0 6 -7 11 -16 11 -24 0 -11 -23
20 -39 22 -10 34 -11 53 -2 36 17 50 13 57 -14 7 -29 37 -48 61 -39 12 5 16
16 13 40 -4 31 -2 34 24 34 20 0 31 -8 43 -30 32 -61 11 -105 -72 -152 -30
-17 -61 -41 -70 -54 -8 -13 -23 -24 -33 -24 -23 0 -45 -26 -65 -78 -10 -23
-20 -42 -25 -42 -12 0 -36 32 -55 72 -9 21 -49 73 -89 117 -39 43 -79 91 -89
106 -23 32 -52 30 -78 -5 -20 -27 -62 -218 -63 -287 0 -37 5 -48 42 -86 23
-23 42 -48 42 -55 0 -6 -12 -19 -26 -28 -22 -15 -34 -16 -102 -6 -42 7 -100
12 -129 12 -51 0 -52 1 -63 38 -7 20 -24 59 -39 86 -31 60 -36 147 -9 189 19
29 78 52 111 43 48 -12 75 -110 40 -148 -9 -10 -29 -18 -45 -18 -32 0 -38 -16
-8 -25 21 -7 48 5 74 31 26 25 21 104 -9 147 -13 20 -21 38 -17 40 4 3 27 7
52 11 106 15 173 114 124 184 -18 26 -65 30 -84 7 -17 -21 -7 -29 18 -14 48
30 75 -38 38 -94 -27 -39 -58 -55 -138 -69 -69 -12 -143 -45 -172 -76 -26 -30
-33 -135 -12 -186 20 -48 20 -89 1 -126 -15 -29 -18 -30 -85 -30 -66 0 -75 -3
-217 -76 -81 -42 -153 -80 -159 -85 -22 -18 -138 -49 -183 -49 -42 0 -159 24
-170 35 -10 11 22 88 51 121 48 54 65 60 92 31 33 -36 88 -51 155 -42 31 4 94
10 141 14 75 5 85 8 88 26 4 27 -49 88 -94 110 l-36 17 35 36 c45 47 52 76 34
143 -9 30 -18 66 -21 82 -6 23 -11 27 -42 27 -42 0 -81 -19 -150 -71 -57 -44
-61 -45 -84 -24 -24 22 -118 55 -136 48 -11 -4 -14 -26 -14 -92 0 -92 15 -136
69 -197 16 -18 20 -29 12 -32 -31 -10 -73 -59 -102 -118 -18 -36 -35 -61 -39
-57 -13 16 -61 136 -70 179 -14 62 1 119 55 206 25 40 48 93 53 118 13 72 7
195 -18 332 l-23 126 38 69 c21 37 47 84 58 103 34 63 67 88 146 115 96 32
126 31 174 -2 48 -34 67 -69 67 -129 0 -103 -36 -154 -107 -154 -27 0 -28 2
-25 40 4 35 1 40 -22 46 -31 7 -56 -10 -56 -38 0 -16 -6 -19 -33 -17 -58 4
-66 0 -75 -34 -9 -33 -7 -47 8 -47 5 0 10 12 12 27 3 24 8 28 41 31 20 2 52
-4 69 -12 36 -19 110 -21 141 -5 16 9 22 9 25 -1 11 -31 52 -60 85 -60 39 0
47 12 47 66 0 28 -5 36 -26 44 -14 6 -36 10 -48 10 -22 0 -23 2 -18 73 5 89
-12 136 -62 169 -20 13 -36 25 -36 28 0 3 28 15 62 25 111 36 157 128 112 222
-30 61 -30 91 1 137 30 45 33 66 4 40 -37 -33 -52 -73 -45 -121 5 -38 3 -43
-14 -43 -21 0 -38 -40 -25 -59 8 -15 48 -14 63 1 9 9 12 3 12 -28 0 -33 -7
-48 -38 -81 -30 -32 -50 -43 -107 -57 -154 -39 -251 -68 -273 -82 -12 -8 -39
-37 -60 -65 -62 -84 -90 -114 -97 -107 -4 4 -4 75 0 158 l7 152 27 -5 c14 -3
45 -11 68 -18 36 -11 50 -10 99 5 60 19 143 86 169 137 8 14 35 50 60 80 34
41 45 61 45 87 0 22 9 47 25 68 42 56 25 104 -38 104 -18 0 -59 7 -92 15 -52
12 -63 12 -82 -1 -12 -8 -45 -14 -73 -14 -49 0 -52 -2 -113 -66 -34 -36 -70
-70 -80 -75 -32 -18 -19 26 28 90 48 64 55 94 29 109 -11 6 -14 16 -10 30 6
18 12 20 61 15 52 -6 56 -4 90 30 31 31 36 42 34 76 -2 25 3 46 13 58 28 33
40 65 34 95 -5 24 0 35 23 59 27 26 36 29 96 29 57 0 69 -3 90 -25 40 -40 28
-103 -25 -130 -30 -16 -32 -15 -37 4 -8 33 -43 27 -43 -7 0 -15 -7 -38 -16
-50 -17 -24 -16 -73 2 -79 6 -2 9 8 6 25 -5 35 24 67 69 76 17 3 44 19 60 35
39 40 41 102 3 142 l-25 26 31 13 c17 7 40 24 50 38 21 26 27 86 10 97 -12 7
9 62 41 106 12 17 18 33 14 37 -9 9 -52 -45 -66 -84 -10 -26 -16 -30 -40 -26
-23 3 -29 0 -34 -21 -10 -38 2 -50 41 -44 29 5 34 3 34 -14 0 -30 -40 -64 -99
-84 -67 -22 -130 -9 -133 28 -3 43 2 60 27 89 56 66 13 169 -70 172 -38 1 -40
3 -53 46 -8 25 -15 68 -16 95 -4 81 -40 125 -102 125 -27 0 -32 4 -37 30 -7
31 -48 60 -86 60 -15 0 -22 9 -27 36 -9 47 10 108 50 164 18 25 38 60 46 78
41 104 115 148 232 140 59 -4 62 -6 119 -65 74 -76 78 -106 22 -152 -27 -22
-48 -31 -75 -31 -36 0 -37 0 -31 34 4 28 1 36 -16 46 -31 16 -54 -4 -48 -43 3
-23 -1 -31 -19 -39 -28 -13 -48 -78 -24 -78 6 0 10 11 10 25 0 35 28 46 100
38 53 -5 65 -3 91 16 l29 22 0 -33 c0 -51 24 -78 69 -78 31 0 40 5 49 25 27
58 4 115 -46 115 -21 0 -24 3 -19 27 12 58 -57 148 -148 196 l-30 15 26 10
c15 6 46 16 70 22 73 20 139 84 139 135 0 9 9 28 19 43 21 30 38 162 20 162
-15 0 -23 -35 -28 -114 -1 -20 -1 -20 -16 0 -15 19 -16 18 -40 -9 -31 -35 -33
-77 -5 -84 28 -7 25 -20 -12 -57 -26 -26 -64 -42 -183 -80 -195 -63 -218 -75
-251 -133 -35 -61 -63 -93 -83 -93 -14 0 -16 21 -13 170 3 195 5 197 85 136
64 -49 80 -52 133 -22 26 14 52 26 60 26 7 0 20 8 29 17 10 10 38 29 64 44 43
24 49 33 40 69 -3 10 5 16 24 18 15 2 27 6 28 10 0 4 2 30 2 57 2 33 12 68 30
104 28 53 28 54 9 73 -18 19 -21 19 -69 3 -46 -15 -53 -15 -94 1 -47 18 -50
18 -149 9 l-65 -6 -28 36 c-17 21 -27 45 -25 58 3 23 7 23 111 16 19 -2 37 6
55 24 24 24 26 34 25 92 0 36 3 65 9 65 22 0 58 50 58 82 0 26 7 38 34 56 40
27 94 44 118 36 23 -7 58 -65 58 -96 0 -25 -34 -78 -49 -78 -4 0 -13 12 -19
26 -10 20 -18 25 -40 22 -35 -4 -42 -40 -13 -60 21 -15 21 -15 -4 -38 -29 -27
-32 -52 -9 -75 21 -21 29 -13 12 14 -11 18 -9 24 22 56 19 19 40 35 48 35 8 0
27 14 43 31 39 42 40 95 2 140 -21 25 -24 34 -14 37 8 3 25 16 39 31 22 24 23
30 17 111 -7 86 -22 150 -37 150 -12 0 -10 -38 2 -45 6 -3 10 -22 10 -40 0
-33 -1 -34 -30 -29 -25 5 -31 2 -41 -20 -19 -40 15 -62 64 -41 14 6 17 2 17
-24 0 -41 -39 -81 -78 -81 -40 0 -91 -19 -128 -47 -17 -12 -34 -23 -37 -23
-13 0 8 36 35 58 21 18 28 32 28 61 0 38 -28 81 -54 81 -19 0 -69 68 -62 85 3
8 14 15 24 15 27 0 42 20 42 59 0 19 5 61 12 94 11 55 11 60 -7 73 -10 8 -30
14 -45 14 -36 0 -70 27 -70 56 0 27 16 30 44 9 27 -20 41 -19 102 10 45 21 57
33 75 71 11 25 18 53 14 62 -3 9 6 30 23 51 65 81 62 112 -11 131 -23 7 -49
21 -58 33 -15 18 -28 21 -98 22 -45 1 -84 5 -88 8 -16 16 -54 4 -96 -30 -25
-21 -60 -46 -77 -57 l-32 -18 7 23 c4 13 11 28 16 34 13 13 11 36 -3 49 -9 8
-12 41 -10 114 l3 102 38 -6 c43 -7 68 4 119 47 58 51 163 34 197 -31 32 -62
7 -110 -56 -110 -42 0 -79 14 -79 30 0 6 9 10 20 10 11 0 20 -4 20 -10 0 -5 7
-10 15 -10 8 0 15 9 15 19 0 21 -40 36 -72 25 -13 -4 -24 0 -33 13 -7 10 -17
15 -20 11 -11 -10 42 -96 63 -101 86 -24 137 -12 157 36 l13 31 11 -44 c30
-118 82 -180 151 -180 39 0 70 25 70 57 0 18 -29 43 -51 43 -25 0 -24 -16 2
-23 34 -9 22 -51 -17 -55 -57 -6 -107 56 -133 163 -14 57 -60 134 -92 153 -12
8 -42 20 -68 28 -41 13 -53 12 -109 -2 -76 -21 -106 -11 -128 41 -20 49 -18
118 4 136 35 29 63 39 87 33 29 -7 75 18 75 41 0 8 8 15 17 15 22 0 53 29 53
49 0 9 13 29 30 44 23 22 30 37 30 68 0 33 3 39 20 39 63 0 131 70 115 120 -9
28 -45 60 -67 60 -10 0 -18 7 -18 15 0 9 9 15 25 15 65 0 100 96 52 144 -20
20 -22 31 -19 77 8 113 7 121 -22 146 -15 12 -40 23 -55 23 -15 0 -36 9 -45
19 -16 18 -16 24 -1 110 11 57 21 91 28 88 6 -2 25 -27 43 -57 27 -46 123
-140 143 -140 13 0 71 -62 71 -76 0 -8 -8 -14 -18 -14 -23 0 -42 -19 -42 -42
0 -13 8 -18 29 -18 30 0 41 -14 41 -55 0 -23 26 -53 37 -42 3 4 1 13 -6 21 -6
8 -13 48 -15 90 -4 86 -19 116 -73 149 l-36 21 40 17 c22 9 43 25 47 34 10 27
7 119 -6 175 -9 41 -9 56 1 72 19 30 2 37 -21 8 -19 -23 -20 -48 -3 -92 4 -11
0 -18 -15 -23 -11 -4 -28 -17 -36 -31 -22 -33 -3 -58 38 -50 24 5 28 2 28 -18
0 -29 -27 -54 -67 -62 -25 -5 -37 0 -67 27 -21 18 -48 54 -61 80 -14 26 -34
50 -45 54 -11 3 -20 14 -20 24 0 22 -22 42 -78 70 -24 12 -42 27 -39 34 2 7
26 23 54 37 28 14 81 54 118 88 36 35 84 74 106 89 37 24 47 46 31 68 -19 26
-48 37 -153 56 -63 11 -122 25 -131 30 -24 13 -74 -9 -122 -55 -38 -35 -40
-36 -64 -20 -24 16 -24 19 -17 83 4 36 11 99 14 140 l6 74 40 14 c22 7 62 25
89 39 41 22 60 25 107 22 68 -5 94 -24 110 -78 14 -47 0 -76 -46 -96 -49 -20
-72 -17 -101 11 -18 18 -23 31 -18 50 7 27 -10 35 -20 9 -11 -29 -6 -45 23
-75 45 -44 110 -39 167 13 l21 19 13 -62 c21 -99 83 -155 152 -140 20 5 41 11
47 15 16 10 13 62 -4 76 -21 17 -29 6 -14 -18 29 -47 -53 -72 -103 -32 -30 23
-53 76 -63 145 -11 68 -40 129 -76 159 -27 23 -40 26 -103 26 -50 0 -79 -5
-95 -16 -29 -21 -97 -13 -121 13 -20 21 -43 197 -41 308 2 78 -24 174 -85 317
-49 114 -54 179 -21 252 25 53 28 56 62 56 48 0 98 -49 115 -110 10 -38 9 -46
-9 -71 -40 -53 -45 -118 -21 -227 12 -53 25 -107 27 -119 3 -13 10 -23 17 -23
17 1 97 111 103 142 6 33 19 36 28 8 3 -10 20 -31 36 -45 28 -23 38 -25 125
-25 115 0 120 6 73 93 -29 53 -33 71 -32 125 2 58 0 64 -22 72 -33 13 -37 25
-15 45 11 10 20 26 20 37 0 19 40 88 51 88 4 0 33 -14 65 -31 64 -33 66 -33
216 -2 l76 16 69 -38 c37 -21 84 -47 103 -58 63 -34 88 -67 115 -146 32 -98
32 -133 -2 -177 -34 -46 -71 -64 -129 -64 -104 0 -154 36 -154 110 0 27 2 30
19 20 30 -16 71 4 71 34 0 28 -24 51 -45 42 -12 -4 -15 4 -13 45 2 35 -2 53
-12 59 -20 13 -70 13 -70 0 0 -5 10 -10 23 -10 36 0 45 -16 36 -66 -5 -24 -13
-53 -19 -63 -13 -26 -13 -97 1 -124 9 -16 9 -22 1 -25 -31 -10 -54 -40 -59
-79 -5 -40 -4 -42 23 -50 61 -16 94 6 94 63 l0 31 69 -5 c94 -6 119 2 168 55
l42 45 11 -44 c18 -65 35 -92 77 -121 48 -33 107 -36 160 -7 50 27 92 25 133
-5 35 -26 50 -31 50 -16 0 4 -18 21 -41 35 -32 22 -50 27 -86 25 -40 -3 -47 0
-54 20 -7 17 -15 22 -36 19 -35 -4 -45 -45 -17 -65 16 -12 13 -13 -21 -13 -84
0 -134 64 -165 213 -20 98 -59 199 -88 230 -15 16 -50 44 -77 62 -55 36 -81
62 -72 71 3 4 74 3 157 -1 l152 -7 -5 -27 c-3 -14 -11 -45 -18 -69 -27 -87 40
-203 161 -280 30 -19 70 -48 88 -63 21 -19 44 -29 64 -29 17 0 50 -11 74 -25
34 -20 48 -23 68 -15 21 7 26 16 26 42 0 18 7 64 15 102 13 60 13 71 0 89 -8
12 -15 43 -15 70 0 48 -2 51 -77 125 -60 58 -74 77 -60 80 20 4 93 -36 121
-67 24 -26 51 -27 73 -2 13 16 20 17 39 9 18 -9 21 -15 14 -29 -15 -27 -12
-82 6 -108 22 -31 75 -52 113 -45 20 4 31 2 31 -4 0 -19 59 -43 98 -40 31 2
42 -2 65 -28 23 -28 27 -40 27 -96 0 -88 -16 -110 -78 -106 -40 3 -49 8 -70
38 l-24 35 22 3 c32 5 23 47 -10 47 -14 0 -37 8 -52 19 -32 21 -78 15 -78 -10
0 -11 4 -12 18 -5 12 7 26 6 42 -2 24 -12 27 -17 54 -80 31 -73 118 -97 172
-46 l23 21 20 -41 c24 -46 49 -57 115 -48 37 5 51 1 101 -29 32 -19 60 -32 62
-30 10 10 -10 28 -63 58 -38 21 -54 36 -52 48 4 22 -20 50 -43 50 -20 0 -35
-39 -25 -65 8 -22 -37 -20 -56 3 -44 50 -63 146 -38 193 15 27 59 24 99 -5 45
-34 82 -40 124 -22 40 16 67 59 67 106 0 26 3 30 28 30 16 0 37 6 48 14 13 10
34 13 66 9 44 -5 50 -3 83 30 24 24 35 44 35 65 0 24 6 32 30 42 32 13 60 55
60 88 0 16 9 21 42 24 54 6 96 -6 139 -37 19 -13 67 -41 107 -62 99 -50 132
-101 132 -204 0 -65 -10 -85 -68 -146 -42 -44 -57 -53 -86 -53 -28 0 -40 7
-65 39 -21 27 -31 50 -31 74 0 33 1 34 36 33 50 -1 69 27 36 54 -18 15 -28 17
-43 9 -16 -8 -21 -6 -28 14 -12 30 -81 53 -81 27 0 -5 9 -10 19 -10 40 0 52
-26 45 -96 -6 -57 -4 -69 15 -95 l22 -29 -31 0 c-48 0 -80 -26 -80 -66 0 -40
29 -64 77 -64 38 0 63 22 63 57 0 22 3 24 25 19 43 -11 101 22 155 86 28 33
50 66 50 74 0 36 18 8 35 -56 22 -81 73 -144 126 -155 17 -4 46 -15 63 -25 41
-23 156 -35 156 -16 0 14 -42 26 -92 26 -26 0 -29 2 -18 15 11 13 9 20 -10 40
-30 32 -75 34 -83 4 -5 -19 -8 -19 -31 -7 -28 15 -76 75 -76 95 0 18 -79 251
-98 287 -18 37 -44 60 -103 90 -25 14 -50 36 -57 50 l-12 26 175 0 c166 0 175
-1 175 -19 0 -11 -15 -39 -34 -64 -19 -24 -37 -54 -40 -65 -7 -21 23 -94 44
-107 5 -3 10 -14 10 -24 0 -10 7 -25 16 -32 9 -8 25 -33 35 -57 20 -47 41 -61
64 -42 17 15 36 5 28 -15 -10 -27 14 -43 60 -38 33 4 55 -2 99 -25 52 -26 60
-27 78 -15 21 15 27 57 10 68 -15 9 -12 78 6 121 13 31 14 45 5 75 -21 68 -14
112 20 142 19 16 43 27 61 27 l30 0 -7 -73 c-7 -72 -6 -74 20 -95 21 -17 41
-22 86 -22 54 0 62 -3 88 -32 20 -23 36 -31 61 -31 26 0 38 -8 61 -40 16 -22
31 -55 35 -74 5 -29 2 -39 -21 -63 -36 -37 -75 -46 -114 -25 -31 15 -44 55
-18 55 21 0 40 39 26 56 -17 20 -47 17 -59 -7 -11 -20 -12 -20 -35 5 -27 29
-72 35 -82 11 -3 -9 -2 -19 2 -23 4 -4 10 -1 12 6 9 25 42 11 70 -29 60 -89
78 -104 121 -104 27 0 52 8 72 24 l32 23 14 -21 c29 -41 113 -67 130 -40 4 7
22 9 47 6 39 -5 107 17 107 35 0 13 -24 9 -47 -7 -23 -16 -78 -11 -67 7 3 5 3
20 0 34 -5 20 -12 25 -34 22 -25 -3 -27 -6 -25 -45 2 -40 0 -43 -23 -43 -41 0
-80 47 -88 106 -4 32 -18 69 -36 95 -35 52 -20 68 19 20 49 -58 129 -48 153
20 5 16 14 29 19 29 4 0 17 9 27 20 24 26 48 17 56 -20 6 -35 18 -38 135 -42
93 -3 95 -2 106 65 4 27 13 41 31 49 37 17 49 -1 28 -45 -17 -35 -17 -36 12
-94 32 -63 72 -92 131 -93 18 0 44 -10 60 -24 52 -43 71 -49 99 -32 16 11 26
30 30 56 4 25 15 45 29 54 20 13 22 22 21 96 -1 45 2 84 7 87 13 8 7 60 -10
74 -24 21 -96 120 -90 126 3 2 19 -3 36 -11 34 -18 61 -21 61 -6 0 6 41 9 108
8 l108 -2 -1 -52 c0 -48 4 -57 38 -91 34 -36 37 -44 37 -95 0 -50 -4 -60 -34
-92 -58 -62 -136 -42 -136 35 0 42 14 79 30 79 6 0 10 -9 10 -20 0 -11 -4 -20
-10 -20 -5 0 -10 -7 -10 -15 0 -23 38 -18 45 6 4 11 4 32 0 46 -4 18 -1 29 12
38 28 21 9 28 -26 11 -56 -29 -71 -54 -71 -116 0 -60 23 -99 58 -101 9 0 -19
-13 -63 -29 -98 -35 -145 -79 -145 -137 0 -42 23 -73 55 -73 27 0 45 18 45 47
0 29 -16 30 -23 2 -8 -30 -51 -22 -55 10 -8 54 55 111 145 131 55 13 126 52
159 88 13 13 30 49 39 79 15 50 15 59 0 104 -24 72 -14 116 30 135 49 20 128
18 146 -3 26 -34 39 -62 33 -78 -10 -26 5 -65 31 -77 13 -6 26 -21 30 -35 3
-13 18 -29 33 -35 15 -7 42 -25 61 -41 26 -22 42 -28 66 -25 31 4 33 2 39 -33
3 -21 18 -51 32 -68 46 -55 127 -36 149 37 9 30 25 28 25 -4 0 -33 50 -84 83
-84 14 0 39 11 55 24 26 23 35 25 108 21 43 -3 87 -2 97 1 20 6 47 54 47 85 0
47 52 58 159 36 30 -7 56 -17 58 -23 2 -6 -18 -22 -44 -37 -54 -29 -105 -79
-152 -149 -29 -44 -66 -78 -83 -78 -5 0 -8 11 -8 24 0 28 -24 51 -46 42 -10
-4 -14 -15 -12 -33 3 -25 0 -28 -41 -35 -49 -8 -67 -20 -57 -37 5 -7 13 -7 24
-1 24 13 92 24 126 21 39 -4 70 15 102 61 15 21 30 38 33 38 4 0 11 -15 16
-32 6 -18 21 -39 35 -46 27 -14 102 -10 182 10 42 10 50 10 68 -7 17 -15 20
-16 20 -3 0 29 -27 41 -78 34 -45 -6 -48 -4 -64 25 -14 24 -23 30 -45 27 -25
-3 -28 -7 -27 -35 2 -30 -1 -33 -27 -33 -33 0 -49 23 -49 70 0 44 26 77 86
111 29 17 59 41 68 54 8 13 26 25 38 27 16 2 30 18 48 55 14 29 29 55 33 59 9
9 32 -20 51 -62 8 -18 44 -65 81 -105 37 -41 79 -91 93 -112 20 -30 31 -37 51
-35 34 4 57 51 71 148 6 41 17 95 25 118 13 38 13 49 0 79 -8 19 -31 50 -51
68 -30 28 -34 36 -25 53 12 22 60 37 89 27 11 -3 62 -6 115 -7 l96 -2 22 -60
c12 -34 30 -73 40 -88 14 -18 19 -44 19 -86 0 -72 -22 -106 -80 -123 -52 -16
-85 5 -100 61 -16 59 3 94 53 98 43 4 49 19 11 28 -32 8 -74 -21 -87 -60 -13
-38 -1 -90 29 -125 l25 -30 -62 -12 c-50 -10 -70 -20 -101 -51 -32 -32 -38
-44 -38 -81 0 -63 31 -93 78 -76 12 5 22 15 22 24 0 18 -4 19 -29 3 -43 -27
-66 34 -36 92 19 37 53 55 135 71 100 19 165 53 188 96 18 32 15 146 -4 187
-19 39 -13 96 13 117 19 17 154 36 323 48 123 8 180 23 298 77 82 38 101 43
157 43 38 0 75 -6 101 -18z m139 -125 c14 -38 29 -83 32 -101 7 -44 -22 -138
-64 -208 l-36 -59 -20 20 c-15 16 -22 39 -26 94 -6 74 -34 137 -68 157 -13 7
-9 11 20 20 47 16 107 82 107 119 0 31 10 47 21 35 3 -5 19 -39 34 -77z m-115
-8630 c21 -17 43 -26 67 -26 28 0 34 -3 29 -16 -3 -9 -6 -20 -6 -24 0 -16 -86
-60 -118 -60 -88 0 -203 51 -274 122 -28 28 -10 38 68 38 52 0 67 4 105 32 24
17 46 36 48 41 2 6 14 -10 27 -35 13 -25 37 -57 54 -72z m290 -116 c48 -24 70
-55 70 -96 0 -70 -65 -98 -139 -59 -52 26 -96 153 -58 168 28 12 90 6 127 -13z"/>
<path d="M3988 7990 c-3 -49 -14 -98 -32 -140 -15 -36 -30 -93 -33 -126 -5
-56 -3 -67 27 -123 18 -34 37 -60 43 -58 5 1 24 32 43 67 39 75 42 116 13 179
-11 25 -24 77 -30 115 -26 175 -25 170 -31 86z"/>
<path d="M3867 7573 c-4 -3 -7 -22 -7 -40 0 -19 -6 -46 -14 -62 -13 -25 -13
-31 7 -70 21 -41 21 -42 3 -76 l-19 -34 28 -36 c25 -33 27 -44 26 -115 -1 -98
-8 -114 -66 -170 -44 -42 -48 -44 -59 -26 -6 11 -28 36 -49 55 -20 20 -55 72
-76 116 l-39 80 43 40 c48 45 62 96 52 187 -7 60 -28 95 -65 110 -26 10 -285
4 -303 -8 -5 -3 -9 -44 -9 -92 0 -149 -20 -406 -34 -426 -18 -28 -155 -86
-180 -77 -38 14 -64 66 -71 145 -10 101 -3 232 13 248 21 21 45 -14 50 -77 5
-62 19 -68 41 -17 16 36 31 42 31 13 0 -11 4 -22 9 -25 4 -3 11 29 15 71 15
182 2 235 -61 252 -60 16 -393 16 -409 -1 -9 -9 -16 -57 -20 -154 -7 -137 -6
-142 15 -163 27 -27 45 -16 71 44 23 53 45 72 65 55 12 -10 14 -32 10 -124
-10 -203 -14 -217 -61 -247 -19 -11 -33 -26 -31 -33 4 -13 690 -16 703 -3 4 4
-9 24 -29 43 -40 39 -45 62 -26 127 7 26 16 37 29 37 24 0 57 -42 66 -83 11
-53 43 -106 73 -121 24 -13 81 -14 372 -10 189 3 359 7 377 10 37 6 42 29 16
69 -14 21 -14 30 -5 54 22 52 89 66 147 31 44 -28 50 -52 24 -88 -12 -16 -20
-38 -18 -48 3 -18 17 -19 229 -22 261 -3 264 -2 209 74 -27 38 -30 50 -30 117
0 82 12 104 53 93 13 -3 39 -22 58 -43 19 -21 68 -75 109 -121 41 -46 83 -88
93 -94 10 -5 99 -12 198 -15 161 -4 180 -3 185 12 4 10 -2 28 -15 45 -41 56
-21 97 58 120 45 13 70 -11 78 -77 3 -30 13 -59 23 -68 10 -9 55 -23 102 -32
119 -23 179 -4 106 33 -74 37 -97 73 -135 203 -28 99 -115 301 -150 348 -26
36 -59 49 -98 39 -35 -9 -42 -32 -15 -54 l22 -18 -25 -50 c-15 -30 -33 -97
-47 -174 -12 -69 -26 -141 -31 -160 -9 -37 -92 -140 -112 -140 -7 1 -24 20
-39 44 l-28 44 0 191 0 192 36 35 c74 75 11 108 -149 78 -41 -8 -51 -36 -25
-69 15 -20 21 -41 21 -80 0 -100 -20 -99 -123 4 -101 101 -159 131 -253 131
-70 0 -107 -11 -107 -33 0 -6 22 -34 49 -62 l50 -50 3 -180 3 -179 -32 -21
c-18 -11 -32 -28 -33 -38 0 -31 -31 -33 -57 -3 -12 15 -23 34 -23 42 0 9 -18
52 -40 95 -22 44 -40 87 -40 96 0 9 -13 40 -30 70 -23 40 -30 65 -30 105 0 64
-14 114 -40 148 -16 21 -26 25 -68 24 -27 -1 -59 -7 -71 -13 -30 -17 -28 -64
5 -95 l27 -24 -32 -39 c-23 -29 -36 -62 -51 -133 -28 -125 -55 -184 -104 -226
-51 -44 -84 -53 -103 -29 -17 24 -18 187 -1 218 26 47 17 161 -19 246 -13 31
-16 33 -50 28 -31 -5 -40 -2 -64 24 -16 17 -29 37 -29 44 0 11 -31 45 -42 45
-2 0 -8 -3 -11 -7z"/>
<path d="M6144 7551 c-23 -10 -52 -34 -65 -52 -24 -33 -24 -37 -24 -259 0
-254 4 -269 72 -311 32 -20 52 -24 119 -24 71 0 85 3 122 27 54 36 68 66 76
161 l7 77 -86 0 -85 0 0 -67 c0 -76 -9 -97 -36 -91 -18 3 -19 16 -19 223 l0
220 25 0 c25 0 25 -2 28 -87 l3 -88 86 0 85 0 -7 88 c-8 108 -27 149 -85 179
-56 30 -156 31 -216 4z"/>
<path d="M6510 7235 l0 -325 80 0 79 0 3 138 3 137 53 3 52 3 0 60 0 59 -55 0
-55 0 0 60 0 60 60 0 60 0 0 65 0 65 -140 0 -140 0 0 -325z"/>
<path d="M7195 6804 c-49 -22 -98 -54 -126 -81 -43 -42 -50 -45 -85 -39 -34 6
-49 1 -119 -41 -76 -45 -85 -48 -162 -52 -46 -1 -83 -5 -83 -8 0 -2 7 -17 15
-33 18 -35 18 -35 -28 -15 -50 20 -61 19 -44 -4 11 -16 11 -33 2 -88 -10 -64
-13 -68 -50 -88 -23 -11 -59 -46 -86 -81 l-46 -61 -43 13 c-25 7 -45 12 -47
11 -1 -1 7 -22 18 -46 10 -24 19 -48 19 -55 0 -6 -29 -37 -64 -68 -48 -43 -72
-58 -94 -58 -26 0 -32 -6 -50 -51 -21 -49 -23 -51 -57 -46 -40 5 -41 4 -19
-59 11 -32 12 -50 5 -57 -7 -7 -5 -21 4 -45 8 -19 15 -50 15 -69 0 -24 8 -41
26 -58 36 -33 108 -65 148 -65 34 0 35 1 57 70 25 75 39 89 39 39 0 -28 37
-106 46 -97 2 2 -3 28 -11 58 -14 51 -13 104 1 198 4 24 16 41 46 62 23 17 45
30 50 30 4 0 8 -22 8 -50 0 -53 15 -70 62 -70 22 -1 22 -1 4 -12 -14 -8 -24
-8 -38 1 -11 7 -18 7 -18 1 0 -5 5 -10 10 -10 14 0 12 -28 -2 -32 -10 -4 -10
-10 -1 -29 l12 -24 0 28 c1 15 6 27 12 27 20 0 179 101 189 120 15 29 12 50
-16 107 -25 49 -26 54 -11 76 12 19 33 29 87 41 69 15 71 15 116 -7 73 -35 98
-124 49 -172 -28 -28 -18 -32 25 -10 35 18 35 18 10 114 -11 41 -18 76 -16 78
2 2 13 -25 26 -59 34 -94 69 -134 126 -143 29 -4 50 -3 57 4 19 19 27 12 28
-26 1 -53 10 -68 44 -71 37 -4 77 -17 135 -47 45 -23 74 -26 98 -11 6 4 17 4
22 1 12 -8 34 16 92 100 56 80 134 158 183 181 31 15 62 19 140 19 127 0 160
-16 287 -140 114 -112 149 -179 156 -296 3 -60 0 -92 -17 -146 -12 -39 -24
-97 -26 -129 -12 -144 -17 -180 -35 -228 -16 -42 -20 -88 -24 -264 -3 -123
-10 -221 -16 -232 -9 -17 -6 -30 16 -71 39 -71 49 -47 40 108 -9 175 9 276 74
410 48 101 49 104 85 350 19 136 47 304 60 372 l25 124 -28 34 c-61 76 -71 95
-83 166 -6 39 -32 126 -56 192 l-44 120 -111 60 c-159 86 -158 85 -158 154 0
82 -7 88 -125 95 -111 7 -268 42 -330 73 -36 18 -48 19 -116 10 -67 -9 -81 -8
-133 12 -31 11 -60 21 -64 21 -4 0 -43 -17 -87 -36z"/>
<path d="M2352 6591 c-191 -61 -261 -102 -459 -275 -136 -118 -151 -134 -182
-200 -54 -112 -57 -224 -15 -581 10 -79 16 -200 15 -277 -3 -197 23 -455 53
-521 12 -29 33 -81 45 -117 18 -54 30 -71 70 -102 69 -53 75 -54 105 -16 31
41 86 246 86 321 0 127 -37 306 -86 414 -26 57 -36 189 -32 402 4 226 9 245
69 299 45 40 142 74 175 62 32 -13 44 -13 44 0 0 6 -10 11 -22 11 -18 1 -17 3
7 8 22 5 35 3 47 -10 10 -10 26 -15 36 -12 13 3 21 -2 25 -14 7 -20 33 -65 58
-101 15 -21 16 -19 22 60 4 46 7 105 7 132 0 90 12 39 19 -81 6 -109 8 -115
18 -80 17 56 76 130 160 199 41 34 104 97 140 140 36 44 68 77 70 74 3 -3 -13
-39 -36 -80 l-40 -74 -7 -149 c-6 -137 -5 -151 14 -188 l20 -40 -5 66 c-6 70
7 130 36 163 9 10 43 37 76 59 33 23 92 66 130 97 56 45 80 58 118 63 40 6 47
4 47 -11 0 -38 -24 -100 -56 -143 -19 -26 -34 -49 -34 -53 0 -3 18 7 39 22 32
22 45 41 66 99 l27 73 34 -26 c19 -15 34 -28 34 -31 0 -31 -92 -129 -162 -172
-44 -26 -46 -31 -15 -31 14 0 56 32 117 90 52 49 98 89 103 90 4 0 -1 -17 -12
-37 -28 -54 -128 -149 -182 -171 -41 -18 -52 -19 -119 -7 -71 12 -72 12 -50
-5 21 -16 101 -30 168 -30 16 0 47 22 96 68 39 37 87 80 106 97 29 25 28 22
-10 -20 -25 -27 -72 -76 -105 -108 l-60 -58 -85 5 c-47 2 -98 9 -114 16 -16 6
-31 9 -33 6 -8 -8 123 -45 182 -50 l60 -6 130 130 c71 71 133 130 137 130 4 0
10 -16 14 -36 5 -29 1 -49 -20 -91 -22 -45 -34 -57 -78 -78 -47 -22 -49 -24
-18 -19 54 9 130 55 148 89 8 16 18 59 22 95 l6 65 17 -53 c21 -68 10 -98 -60
-164 -50 -46 -75 -57 -185 -80 -32 -7 -58 -15 -58 -18 0 -11 136 8 180 25 25
10 59 30 75 45 51 45 87 70 95 65 4 -3 13 -27 20 -54 11 -46 10 -52 -14 -90
-29 -45 -25 -53 10 -20 l23 21 13 -21 c7 -12 16 -21 19 -21 4 0 21 22 38 48
44 70 58 162 44 302 l-11 110 -43 39 c-31 27 -65 45 -114 59 -57 17 -74 26
-83 47 -16 36 -205 126 -430 204 l-173 61 -187 0 -187 -1 -153 -48z"/>
<path d="M4899 5855 c-3 -2 -59 -20 -124 -39 -66 -19 -185 -64 -265 -100
l-145 -64 -91 -115 c-77 -98 -93 -123 -106 -178 -9 -35 -19 -73 -22 -84 -4
-11 2 -4 11 16 20 40 108 135 97 104 -7 -19 -7 -19 13 -2 11 9 22 14 26 11 3
-4 28 14 54 40 60 58 204 142 258 150 77 11 535 47 543 42 5 -3 57 -6 118 -7
85 -2 116 1 141 14 30 16 35 16 87 -4 78 -30 168 -114 197 -184 12 -30 26 -52
31 -49 4 3 5 -1 3 -8 -9 -23 20 -50 56 -53 19 -2 33 -8 32 -14 -2 -6 4 -11 12
-11 10 0 12 -6 8 -17 -6 -16 -5 -16 10 -5 14 12 14 18 -10 60 -92 166 -117
204 -166 244 -29 23 -54 45 -57 48 -34 38 -145 108 -221 140 -90 37 -107 40
-270 55 -187 16 -213 17 -220 10z"/>
<path d="M3010 5701 l-75 -19 96 -1 c88 -1 103 -4 195 -42 54 -23 104 -46 111
-51 9 -7 14 -2 19 16 3 14 4 32 1 38 -7 19 -153 67 -217 72 -35 3 -82 -2 -130
-13z"/>
<path d="M3468 5612 l-36 -37 -3 -140 c-2 -77 0 -150 4 -162 8 -22 6 -23 -36
-23 -50 0 -83 -27 -92 -75 -10 -48 10 -61 118 -83 l97 -19 43 27 c49 31 73 76
63 116 -4 15 -33 69 -66 120 -79 126 -84 143 -66 235 8 41 13 75 12 76 -1 2
-18 -14 -38 -35z"/>
<path d="M6815 5607 c-75 -29 -102 -47 -126 -86 -22 -36 -24 -52 -8 -68 9 -9
18 -9 38 1 14 8 60 23 102 34 63 18 86 19 140 12 75 -11 216 -12 242 -1 18 6
18 7 0 23 -10 9 -51 35 -92 58 -67 38 -83 43 -155 46 -67 4 -92 0 -141 -19z"/>
<path d="M6548 5417 c-5 -10 -8 -36 -8 -57 0 -21 -9 -60 -21 -87 -11 -26 -25
-74 -30 -106 -5 -32 -21 -82 -34 -112 -27 -59 -32 -116 -12 -155 22 -43 94
-90 139 -90 50 0 143 26 186 52 26 16 32 26 32 54 0 51 -24 101 -57 117 -20
10 -52 13 -118 9 -90 -4 -90 -4 -105 23 -18 33 -16 50 16 182 23 92 31 218 12
170z"/>
<path d="M2435 5131 c-73 -11 -85 -27 -95 -126 -6 -57 -6 -95 1 -107 5 -10 7
-18 4 -18 -6 0 34 -103 44 -110 4 -3 43 -54 86 -115 44 -60 85 -114 92 -118 7
-4 13 -15 13 -22 0 -8 4 -15 9 -15 4 0 42 -32 82 -71 87 -83 202 -179 215
-179 5 0 25 -13 44 -29 69 -56 96 -64 189 -57 47 4 102 11 122 16 48 13 111
60 128 96 7 16 19 43 27 59 25 53 83 315 70 315 -4 0 -22 -25 -42 -56 -37 -58
-58 -74 -76 -56 -8 8 -6 18 6 36 24 37 21 43 -30 50 -41 5 -50 3 -72 -19 -29
-29 -72 -33 -94 -7 -42 49 -65 202 -37 253 12 23 117 74 194 95 85 23 139 19
178 -16 38 -33 47 -30 47 11 0 41 -20 79 -44 84 -94 18 -142 13 -278 -31 -57
-19 -85 -34 -104 -57 -32 -38 -57 -94 -50 -113 3 -7 -9 -35 -27 -61 -27 -40
-39 -49 -72 -55 -131 -22 -246 63 -330 245 -14 31 -30 59 -35 62 -6 3 -10 15
-10 26 0 24 -76 100 -99 97 -9 0 -34 -4 -56 -7z"/>
<path d="M4872 4874 c-24 -12 -69 -26 -100 -29 -137 -15 -157 -23 -208 -78
-65 -70 -127 -147 -119 -147 4 0 31 16 61 36 66 44 155 74 251 84 90 9 233 65
233 91 0 10 3 24 6 32 5 14 -6 19 -66 31 -8 2 -35 -7 -58 -20z"/>
<path d="M5318 4863 c-24 -4 -28 -9 -28 -36 0 -18 4 -37 8 -44 4 -6 54 -16
112 -22 253 -27 278 -35 315 -94 l19 -32 4 27 c5 39 -49 110 -106 141 -74 40
-249 73 -324 60z"/>
<path d="M5231 4685 c-12 -26 -21 -57 -21 -69 0 -59 43 -243 74 -322 20 -48
36 -89 36 -91 0 -1 -22 6 -49 17 -49 19 -51 19 -106 0 -31 -11 -67 -28 -82
-39 -17 -14 -33 -19 -49 -15 -15 4 -36 -2 -59 -16 -76 -47 -86 -106 -30 -165
32 -34 37 -37 72 -30 21 4 105 9 188 10 l149 2 39 45 38 46 -14 50 c-9 28 -31
73 -50 100 -25 37 -45 89 -75 199 -60 215 -61 222 -46 273 18 60 10 62 -15 5z"/>
<path d="M5150 3846 c-55 -10 -83 -24 -175 -88 -104 -71 -136 -105 -101 -105
11 0 13 4 6 12 -6 7 -3 11 10 11 10 0 16 -5 13 -11 -4 -5 3 -2 14 8 44 39 178
117 212 124 20 5 74 8 121 7 84 0 86 -1 163 -49 43 -27 90 -63 104 -79 27 -32
27 -32 8 32 -13 42 -190 139 -269 147 -23 2 -70 -2 -106 -9z"/>
<path d="M1555 3045 l0 -166 65 3 65 3 3 35 c3 28 1 33 -9 23 -7 -7 -23 -13
-36 -13 -21 0 -23 4 -23 50 0 51 6 60 28 38 9 -9 12 -4 12 26 0 33 -2 37 -20
31 -18 -6 -20 -2 -20 39 0 41 2 46 23 46 13 0 28 -5 35 -12 9 -9 12 -4 12 25
l0 37 -67 0 -68 0 0 -165z"/>
<path d="M1718 3198 c8 -8 12 -57 12 -153 0 -96 -4 -145 -12 -153 -9 -9 -2
-12 32 -12 34 0 41 3 32 12 -7 7 -12 40 -12 83 l1 70 29 -65 c40 -87 44 -94
64 -98 14 -3 16 12 16 143 0 82 5 155 10 166 10 17 7 19 -22 19 l-33 0 3 -53
c2 -30 2 -67 0 -82 -2 -25 -8 -17 -37 53 -32 78 -35 82 -64 82 -24 0 -28 -3
-19 -12z"/>
<path d="M2035 3045 l0 -165 26 0 26 0 -4 78 c-5 91 9 83 27 -15 7 -35 16 -63
20 -63 8 0 30 85 30 118 0 9 5 24 11 32 7 11 9 -8 6 -67 l-4 -83 39 0 c35 0
38 2 28 19 -13 26 -13 266 0 292 10 17 7 19 -33 19 l-44 0 -7 -60 c-4 -33 -11
-60 -16 -60 -5 0 -12 27 -16 60 l-7 60 -41 0 -41 0 0 -165z"/>
<path d="M2288 3198 c15 -15 17 -271 2 -299 -10 -18 -7 -19 60 -19 l70 0 0 35
c0 32 -2 34 -19 24 -32 -21 -50 -5 -47 43 1 34 5 42 19 40 13 -2 17 4 17 26 0
22 -4 29 -17 28 -14 -1 -18 7 -18 39 0 35 3 40 24 43 13 2 28 -2 32 -10 6 -8
9 0 9 25 l0 37 -72 0 c-56 0 -69 -3 -60 -12z"/>
<path d="M2456 3198 c11 -17 12 -279 2 -300 -7 -15 -4 -18 27 -18 21 0 34 4
30 10 -8 13 -12 130 -5 130 4 0 12 -29 19 -65 7 -36 17 -67 21 -70 5 -3 14 21
20 52 20 98 30 106 27 21 l-2 -78 38 0 c34 0 37 2 28 19 -12 22 -12 269 1 294
8 15 3 17 -37 17 -25 0 -44 -3 -43 -7 4 -20 -15 -122 -23 -118 -4 3 -11 32
-15 65 l-7 60 -44 0 c-32 0 -42 -3 -37 -12z"/>
<path d="M2712 3198 c-17 -17 -17 -289 0 -306 14 -14 86 -16 106 -4 9 7 12 46
10 163 l-3 154 -50 3 c-30 2 -55 -2 -63 -10z"/>
<path d="M2868 3203 c17 -7 17 -294 0 -311 -9 -9 -2 -12 33 -12 l44 0 -3 72
c-3 50 0 70 7 63 5 -5 11 -37 13 -70 3 -56 5 -60 28 -63 25 -3 25 -3 22 75 -2
43 -3 83 -3 88 0 6 0 40 1 77 1 36 -1 71 -5 77 -3 6 -37 11 -78 10 -40 0 -66
-3 -59 -6z"/>
<path d="M3060 3196 c8 -11 11 -59 8 -165 l-3 -151 37 0 c36 0 37 1 28 25 -10
27 -6 276 5 294 4 7 -10 11 -41 11 -39 0 -45 -2 -34 -14z"/>
<path d="M3207 3195 c7 -20 -17 -274 -29 -297 -7 -15 -4 -18 22 -18 26 0 30 3
30 29 0 37 27 50 36 16 3 -13 3 -29 -1 -34 -4 -7 9 -11 35 -11 36 0 40 2 31
18 -5 10 -15 84 -22 165 l-13 147 -48 0 c-38 0 -46 -3 -41 -15z"/>
<path d="M3437 3051 c-31 -88 -57 -162 -57 -166 0 -3 10 -5 22 -3 15 2 27 16
39 48 26 66 99 269 99 275 0 3 -10 5 -23 5 -20 0 -29 -17 -80 -159z"/>
<path d="M3590 3191 c-5 -11 -10 -78 -10 -150 0 -147 6 -161 68 -161 64 0 67
5 70 147 2 74 -1 140 -7 156 -10 24 -15 27 -60 27 -39 0 -53 -4 -61 -19z"/>
<path d="M3755 3045 l0 -165 35 0 36 0 -4 70 c-3 45 -1 70 6 70 7 0 12 -28 14
-67 3 -66 4 -68 30 -71 l27 -3 -1 148 c0 81 -4 156 -9 166 -8 13 -23 17 -72
17 l-62 0 0 -165z"/>
<path d="M3940 3191 c-5 -11 -10 -81 -10 -155 0 -155 0 -156 89 -156 l50 0 3
110 3 110 -32 0 -33 0 0 -86 c0 -54 -4 -83 -10 -79 -6 4 -10 53 -10 116 l0
109 33 0 c26 0 36 6 45 25 l12 25 -65 0 c-53 0 -66 -3 -75 -19z"/>
<path d="M4108 3058 c3 -169 6 -178 68 -178 65 0 64 -2 64 159 0 101 4 151 12
159 9 9 4 12 -25 12 l-37 0 0 -134 c0 -79 -4 -137 -10 -141 -6 -4 -10 43 -10
134 l0 141 -32 0 -33 0 3 -152z"/>
<path d="M4288 3198 c17 -17 17 -289 0 -306 -10 -10 3 -12 67 -10 l80 3 2 38
c2 34 1 36 -13 22 -9 -8 -27 -15 -40 -15 l-25 0 3 140 3 140 -44 0 c-35 0 -42
-3 -33 -12z"/>
<path d="M4475 3045 l0 -165 73 0 72 0 0 43 c-1 33 -3 38 -11 25 -6 -11 -22
-18 -40 -18 l-30 0 3 140 3 140 -35 0 -35 0 0 -165z"/>
<path d="M4663 3204 c-18 -8 -18 -295 -1 -312 17 -17 93 -15 107 2 8 9 11 61
9 162 l-3 149 -50 2 c-27 1 -56 0 -62 -3z"/>
<path d="M5497 3074 c-31 -17 -212 -58 -302 -69 -159 -18 -324 5 -357 50 -11
15 -10 -19 2 -50 5 -14 32 -50 60 -79 38 -40 66 -59 117 -78 135 -52 243 -42
384 34 71 39 79 47 103 98 27 61 41 110 29 110 -5 -1 -20 -8 -36 -16z"/>
<path d="M7575 2917 c-59 -20 -84 -35 -138 -86 -87 -81 -128 -198 -108 -308
30 -162 147 -273 313 -298 95 -14 211 29 289 108 l48 49 31 -30 c27 -27 28
-31 12 -36 -10 -4 -36 -25 -58 -47 l-39 -41 120 5 c66 3 122 6 124 6 2 1 1 8
-3 16 -4 11 2 15 27 15 18 1 48 6 67 13 40 14 66 12 73 -7 6 -15 -23 -17 -41
-3 -9 7 -16 6 -25 -3 -9 -10 -9 -11 1 -6 6 4 12 2 12 -5 0 -8 -13 -10 -45 -6
-25 4 -47 2 -50 -3 -4 -6 15 -11 47 -11 29 -1 84 -3 123 -4 l70 -3 -49 44
c-26 24 -52 41 -57 38 -21 -13 -6 14 26 44 42 41 69 119 62 174 -23 169 -218
264 -353 172 -20 -14 -37 -24 -38 -22 -51 117 -103 174 -195 216 -66 31 -183
39 -246 19z m251 -38 c73 -34 126 -90 162 -167 36 -78 36 -194 0 -272 -32 -71
-96 -135 -166 -168 -49 -23 -71 -27 -147 -27 -73 0 -99 4 -136 23 -74 36 -125
87 -161 160 -30 60 -33 76 -33 152 0 101 21 154 86 225 103 112 256 141 395
74z m541 -286 c3 -7 -7 -18 -21 -24 -14 -7 -23 -16 -20 -21 3 -5 12 -4 19 2
19 16 38 2 32 -21 -3 -11 -2 -19 2 -19 4 0 7 -11 7 -24 0 -14 -4 -22 -8 -20
-5 3 -6 10 -3 15 4 5 1 9 -5 9 -6 0 -9 4 -6 8 12 19 -10 30 -29 15 -20 -15
-20 -16 0 -9 11 4 16 4 13 0 -4 -4 -1 -16 7 -28 8 -11 15 -28 15 -37 0 -19
-38 -65 -52 -61 -5 1 -7 -2 -4 -7 10 -16 -14 -23 -31 -9 -15 12 -15 11 -4 -9
14 -27 -3 -32 -19 -5 -11 16 -11 16 -6 -1 10 -32 -6 -41 -26 -16 -18 22 -18
22 -9 2 8 -15 8 -24 0 -28 -13 -9 -15 -7 -23 27 -5 21 -2 28 14 33 12 4 17 11
14 18 -5 9 -4 9 6 0 10 -9 18 -8 36 4 24 15 35 41 12 27 -6 -4 -8 -3 -4 4 3 6
24 9 46 7 29 -3 40 -1 40 9 0 8 -7 17 -16 20 -9 4 -14 13 -10 21 3 9 0 15 -9
15 -10 0 -15 11 -15 34 0 19 -6 37 -12 40 -9 3 -5 11 11 26 26 22 52 23 58 3z"/>
<path d="M7635 2791 c-69 -17 -126 -64 -160 -130 -13 -25 -16 -52 -13 -101 4
-81 35 -135 101 -177 35 -23 53 -28 112 -28 59 0 78 4 118 28 65 38 97 90 104
166 8 81 -14 138 -73 190 -31 27 -61 43 -95 50 -55 12 -51 12 -94 2z m126 -25
c19 -8 45 -25 57 -39 22 -23 22 -25 5 -30 -10 -3 -36 -5 -57 -6 -21 0 -41 -3
-44 -5 -2 -3 -13 -1 -23 5 -11 5 -19 6 -19 2 0 -10 -96 -10 -106 -1 -3 4 -15
2 -25 -5 -30 -19 -44 5 -20 34 18 21 22 22 32 9 9 -13 10 -12 5 3 -13 40 124
63 195 33z"/>
<path d="M1555 2476 l0 -164 63 3 c35 2 65 5 67 7 7 7 7 297 0 307 -3 6 -34
11 -68 11 l-62 0 0 -164z"/>
<path d="M1735 2477 l0 -162 65 0 65 1 3 33 c3 30 2 32 -17 22 -41 -22 -51
-14 -51 40 0 46 2 50 20 44 17 -5 20 -2 20 24 0 24 -4 31 -20 31 -17 0 -20 7
-20 41 l0 42 35 -6 c33 -5 35 -4 35 24 l0 29 -67 0 -68 0 0 -163z"/>
<path d="M1994 2632 c8 -13 9 -285 2 -303 -6 -14 0 -17 31 -17 l39 -1 -4 65
-4 64 29 0 c45 0 53 16 53 100 0 46 -5 81 -12 88 -13 13 -142 17 -134 4z"/>
<path d="M2180 2619 c11 -20 10 -254 0 -289 -4 -12 7 -15 60 -15 l65 0 3 39
c3 35 2 37 -12 23 -29 -29 -51 -15 -54 36 -2 36 0 47 12 47 8 0 17 -6 19 -12
3 -7 6 7 6 31 1 35 -2 41 -12 32 -19 -15 -27 -4 -27 41 0 35 2 38 29 38 16 0
32 -6 34 -12 3 -7 6 4 6 25 l1 37 -70 0 c-68 0 -70 -1 -60 -21z"/>
<path d="M2345 2477 l0 -164 35 0 35 0 -3 69 c-3 45 -1 68 7 68 7 0 11 -24 11
-65 0 -36 3 -65 8 -66 4 0 17 -2 29 -5 21 -4 22 -2 18 74 -5 91 -5 91 -2 162
2 85 -2 90 -75 90 l-63 0 0 -163z"/>
<path d="M2520 2603 c0 -29 3 -34 12 -25 7 7 16 12 21 12 5 0 7 -62 5 -139
l-3 -138 34 1 33 1 -1 138 c-1 75 2 137 7 137 4 0 13 -5 20 -12 9 -9 12 -4 12
25 l0 37 -70 0 -70 0 0 -37z"/>
<path d="M2700 2620 c13 -24 10 -265 -3 -292 -8 -15 -1 -16 60 -15 l68 2 3 39
c3 36 2 38 -14 22 -29 -30 -49 -16 -52 37 -2 36 0 47 12 47 8 0 17 -6 19 -12
3 -7 6 6 6 29 1 36 -1 41 -19 36 -18 -5 -20 0 -20 36 0 39 2 41 29 41 16 0 32
-6 34 -12 3 -7 6 4 6 25 l1 37 -70 0 c-68 0 -70 -1 -60 -20z"/>
<path d="M2865 2477 l0 -164 26 1 25 1 -4 80 c-2 44 -1 77 4 72 4 -4 22 -40
39 -80 23 -54 36 -72 51 -72 18 0 19 10 24 163 l5 162 -34 0 c-27 0 -32 -3
-23 -12 7 -7 12 -41 12 -82 0 -81 -6 -79 -48 19 -24 55 -36 71 -54 73 l-23 3
0 -164z"/>
<path d="M3085 2477 l0 -164 64 1 64 1 1 33 c1 32 -7 41 -19 22 -3 -5 -15 -10
-26 -10 -16 0 -19 7 -19 51 0 46 2 50 20 44 17 -5 20 -2 20 25 0 24 -4 30 -17
28 -15 -2 -19 6 -21 40 l-3 44 33 -4 c22 -2 33 1 32 10 -3 42 -3 42 -66 42
l-63 0 0 -163z"/>
<path d="M3250 2626 c8 -11 11 -58 8 -163 l-3 -148 25 -2 c25 -2 25 -2 22 80
l-2 82 30 -65 c40 -88 45 -95 61 -95 11 0 15 30 17 149 1 90 7 155 14 163 8
10 4 13 -23 13 l-34 0 3 -53 c2 -30 2 -67 0 -82 -2 -25 -8 -17 -37 53 -31 77
-35 82 -63 82 -25 0 -28 -2 -18 -14z"/>
<path d="M3466 2625 c-3 -9 -6 -79 -6 -155 0 -156 2 -160 72 -155 49 4 58 11
58 46 0 28 -1 29 -16 14 -9 -9 -23 -14 -31 -11 -8 3 -17 6 -19 6 -2 0 -4 50
-4 110 0 108 0 110 23 110 13 0 29 -6 36 -12 10 -11 12 -6 9 22 l-3 35 -56 3
c-45 2 -58 0 -63 -13z"/>
<path d="M3628 2628 c15 -15 17 -270 3 -297 -9 -15 -5 -18 27 -17 l37 0 -3
148 c-3 107 0 153 8 163 11 13 5 15 -36 15 -37 0 -45 -3 -36 -12z"/>
<path d="M3776 2623 c5 -21 -21 -271 -30 -294 -6 -13 0 -16 24 -17 25 -1 30 3
26 15 -9 22 3 53 20 53 13 0 19 -16 16 -50 -1 -11 9 -16 34 -17 28 0 34 3 30
16 -6 21 -26 202 -28 264 l-2 47 -47 0 c-40 0 -46 -3 -43 -17z"/>
<path d="M1616 1894 c-21 -12 -25 -19 -17 -27 16 -16 15 -229 -1 -245 -9 -9
-3 -12 28 -12 l39 0 -3 150 c-2 82 -6 150 -10 150 -4 -1 -20 -8 -36 -16z"/>
<path d="M1706 1895 c-3 -9 -5 -29 -5 -43 1 -16 3 -20 6 -10 5 19 27 30 48 22
26 -10 17 -55 -20 -100 -28 -34 -35 -51 -35 -86 0 -52 13 -68 56 -68 50 0 64
9 64 41 0 26 -2 28 -19 18 -23 -15 -51 -5 -51 17 0 9 16 36 36 60 32 40 35 48
32 101 l-3 58 -51 3 c-40 2 -53 -1 -58 -13z"/>
<path d="M1934 1898 c-9 -14 -8 -264 1 -278 9 -14 89 -12 103 2 13 13 18 242
6 272 -8 20 -99 23 -110 4z"/>
<path d="M2082 1893 c-10 -22 -9 -254 1 -270 10 -16 89 -17 105 -1 13 13 18
242 6 272 -9 24 -100 22 -112 -1z"/>
<path d="M2328 1774 c3 -95 0 -139 -8 -150 -11 -12 -6 -14 26 -14 l39 0 -3 66
c-3 59 -2 65 15 62 15 -3 18 -13 18 -66 l-1 -62 31 0 30 0 0 150 0 150 -31 0
-31 0 5 -50 c5 -60 -1 -82 -23 -73 -13 5 -16 18 -13 64 l3 59 -30 0 -30 0 3
-136z"/>
<path d="M3824 1897 c-2 -7 -3 -74 -2 -148 l3 -134 43 -3 c47 -3 72 10 72 38
0 14 -7 18 -32 16 l-33 -1 -3 96 c-2 81 0 98 13 103 9 3 25 1 36 -4 20 -11 25
2 13 34 -8 20 -102 23 -110 3z"/>
<path d="M3975 1760 l0 -150 30 0 31 0 -4 65 c-4 62 -3 65 18 65 20 0 22 -4
18 -65 l-3 -65 30 0 30 0 0 150 0 150 -30 0 -30 0 3 -60 c4 -56 2 -60 -18 -60
-20 0 -22 4 -18 60 l3 60 -30 0 -30 0 0 -150z"/>
<path d="M4200 1893 c0 -51 -24 -251 -32 -265 -7 -15 -4 -18 20 -18 24 0 28 4
27 27 0 19 6 29 19 31 16 3 18 -1 14 -27 -4 -30 -3 -31 34 -31 34 0 38 2 29
18 -6 10 -15 78 -22 150 l-12 132 -39 0 c-29 0 -38 -4 -38 -17z"/>
<path d="M4355 1760 l0 -150 30 0 30 0 -3 65 c-2 40 0 65 7 65 5 0 11 -28 13
-62 3 -60 4 -63 29 -66 23 -3 26 0 22 20 -2 13 -5 79 -6 148 l-2 125 -60 3
-60 3 0 -151z"/>
<path d="M4519 1883 c-11 -31 -9 -230 3 -255 13 -26 94 -25 108 1 17 33 12 40
-25 34 l-35 -6 0 101 c0 84 3 101 17 106 9 4 21 2 27 -4 15 -15 26 -12 23 8
-5 33 -18 42 -63 42 -39 0 -46 -3 -55 -27z"/>
<path d="M4666 1895 c-3 -9 -6 -72 -6 -140 0 -140 4 -148 72 -143 l43 3 0 145
0 145 -51 3 c-40 2 -53 -1 -58 -13z"/>
<path d="M4906 1899 c9 -15 9 -263 0 -278 -10 -15 106 -15 122 1 13 13 18 242
6 272 -5 12 -21 16 -71 16 -45 0 -62 -3 -57 -11z"/>
<path d="M5075 1760 l0 -150 58 0 c56 0 57 1 57 28 0 26 -3 28 -30 24 -29 -4
-30 -3 -30 38 0 37 2 42 20 37 17 -4 20 0 20 28 0 29 -3 32 -21 28 -18 -5 -20
-2 -17 33 3 36 5 39 31 37 22 -1 27 2 27 23 0 23 -3 24 -57 24 l-58 0 0 -150z"/>
<path d="M5315 1760 l0 -150 68 0 67 0 0 37 c0 29 -3 34 -12 25 -7 -7 -25 -12
-41 -12 l-29 0 4 125 3 125 -30 0 -30 0 0 -150z"/>
<path d="M5501 1778 c-7 -73 -17 -141 -22 -150 -8 -15 -5 -18 22 -18 24 0 30
4 25 15 -8 21 3 45 20 45 9 0 14 -11 14 -30 0 -28 3 -30 35 -30 31 0 34 2 27
18 -5 9 -15 77 -22 150 l-13 132 -37 0 -37 0 -12 -132z"/>
<path d="M5758 1775 c3 -96 0 -140 -8 -151 -11 -12 -6 -14 26 -14 l39 0 0 56
c0 48 3 57 18 60 46 7 48 10 45 96 l-3 83 -60 3 -60 3 3 -136z"/>
<path d="M5914 1901 c7 -11 -13 -228 -24 -263 -8 -26 -7 -28 18 -28 24 0 28 4
27 27 0 19 6 29 19 31 16 3 18 -1 14 -27 -4 -30 -4 -31 35 -31 31 0 37 3 29
13 -6 7 -17 75 -23 150 l-12 137 -44 0 c-24 0 -42 -4 -39 -9z"/>
<path d="M6044 1893 c3 -10 12 -70 21 -133 21 -146 22 -150 49 -150 22 0 24 8
46 137 12 76 25 143 27 150 3 8 -4 13 -20 13 -23 0 -25 -4 -32 -75 -11 -120
-27 -94 -29 48 -1 24 -5 27 -34 27 -27 0 -32 -3 -28 -17z"/>
<path d="M6221 1773 c-7 -76 -17 -144 -23 -150 -8 -10 -3 -13 21 -13 20 0 31
5 30 13 -4 30 2 47 16 47 10 0 15 -10 15 -30 0 -28 3 -30 35 -30 31 0 34 2 27
18 -5 9 -15 77 -22 150 l-12 132 -37 0 -37 0 -13 -137z"/>
<path d="M7686 1894 c-12 -30 -7 -259 6 -272 7 -7 31 -12 55 -12 34 0 45 4 51
20 8 21 6 244 -2 266 -8 21 -102 19 -110 -2z"/>
<path d="M7840 1861 c0 -27 -3 -62 -6 -79 -6 -29 -4 -31 27 -34 32 -3 34 -5
34 -43 0 -35 -3 -40 -24 -43 -13 -2 -28 2 -32 10 -6 9 -9 5 -9 -12 0 -35 18
-50 60 -50 57 0 61 8 58 96 l-3 79 -30 5 c-27 5 -30 9 -26 35 4 39 8 45 32 45
12 0 19 7 19 20 0 17 -7 20 -50 20 l-50 0 0 -49z"/>
<path d="M8207 1891 c-18 -11 -25 -21 -18 -25 16 -10 15 -228 -1 -244 -9 -9
-3 -12 28 -12 l39 0 -3 150 c-2 82 -6 150 -10 150 -4 0 -20 -9 -35 -19z"/>
<path d="M8302 1898 c-8 -8 -12 -51 -12 -139 0 -144 4 -152 71 -147 54 4 56 9
49 171 l-5 122 -45 3 c-26 2 -50 -2 -58 -10z"/>
</g>
</svg>
