<svg width="24" height="24" viewBox="0 0 24 24" fill="none" xmlns="http://www.w3.org/2000/svg">
<path d="M7.87646 17.8178L6.51139 21.379C6.36775 21.7521 6.01247 21.9987 5.61531 21.9987H2.64106C2.19166 21.9987 1.88081 21.5425 2.04404 21.1193L9.21143 2.41269C9.30682 2.16349 9.54457 2 9.80844 2H14.2169C14.4822 2 14.7198 2.16481 14.8152 2.414L21.9564 21.1206C22.1184 21.5438 21.8088 22 21.3581 22H18.4008C18.0038 22 17.6472 21.7536 17.5047 21.379L16.1463 17.8218C15.7845 16.8751 14.8832 16.2502 13.8774 16.2502H10.1429C9.13833 16.2502 8.23827 16.8738 7.87519 17.8192L7.87646 17.8178ZM14.7526 11.8385C14.7526 10.3038 13.5194 9.05916 11.9989 9.05916C10.4786 9.05916 9.24535 10.3038 9.24535 11.8385C9.24535 13.3732 10.4786 14.6179 11.9989 14.6179C13.5194 14.6179 14.7526 13.3732 14.7526 11.8385Z" fill="#8F9090"/>
</svg>
