<svg width="24" height="24" viewBox="0 0 24 24" fill="none" xmlns="http://www.w3.org/2000/svg">
<path d="M2 14.8698C2 12.9361 2.91879 11.4692 4.55947 11.4692C7.97211 11.4692 13.7473 18.4704 11.1879 21.0042C8.75964 23.5379 2 20.8041 2 14.8698Z" fill="#8F9090"/>
<path d="M8.49657 8.93433C6.92151 10.8013 4.7558 10.2679 3.64013 9.13436C1.34316 6.73396 3.64013 3 6.79025 3C9.80912 3 11.2529 5.66711 8.49657 8.93433Z" fill="#8F9090"/>
<path d="M18.0777 4.79995C15.3213 4.73328 10.4648 6.73361 10.4648 10.4009C10.4648 16.1352 23.0654 24.7366 22.9997 11.5344C22.9997 6.60026 20.7028 4.86663 18.0777 4.79995Z" fill="#8F9090"/>
</svg>
