<svg width="24" height="24" viewBox="0 0 24 24" fill="none" xmlns="http://www.w3.org/2000/svg">
<path fill-rule="evenodd" clip-rule="evenodd" d="M6.23898 8.41403C5.1139 7.68092 4.37012 6.41166 4.37012 4.96865C4.37012 2.69916 6.2099 0.859375 8.47939 0.859375H15.5199C17.7894 0.859375 19.6292 2.69916 19.6292 4.96865C19.6292 6.41166 18.8854 7.68092 17.7603 8.41403C18.8854 9.14714 19.6292 10.4164 19.6292 11.8594C19.6292 14.1289 17.7894 15.9687 15.5199 15.9687H15.445C14.3722 15.9687 13.3954 15.5576 12.6636 14.8843V18.7126C12.6636 21.0075 10.7835 22.8594 8.49801 22.8594C6.23319 22.8594 4.37012 21.0242 4.37012 18.7501C4.37012 17.3071 5.11386 16.0379 6.23891 15.3048C5.11386 14.5716 4.37012 13.3024 4.37012 11.8594C4.37012 10.4164 5.1139 9.14714 6.23898 8.41403ZM12.6636 11.8594C12.6636 13.3956 13.9089 14.6408 15.445 14.6408H15.5199C17.0561 14.6408 18.3013 13.3956 18.3013 11.8594C18.3013 10.3233 17.0561 9.07799 15.5199 9.07799H15.445C13.9089 9.07799 12.6636 10.3233 12.6636 11.8594ZM11.3357 9.07799H8.47939C6.94324 9.07799 5.69796 10.3233 5.69796 11.8594C5.69796 13.3924 6.93821 14.6358 8.47004 14.6408H8.4744H11.3357V9.07799ZM8.47939 15.9687C8.47627 15.9687 8.47315 15.9687 8.47004 15.9687C6.93821 15.9737 5.69796 17.2171 5.69796 18.7501C5.69796 20.2816 6.95721 21.5315 8.49801 21.5315C10.0595 21.5315 11.3357 20.2648 11.3357 18.7126V15.9687H8.47939ZM11.3357 7.75007H8.47939C6.94324 7.75007 5.69796 6.5048 5.69796 4.96865C5.69796 3.4325 6.94324 2.18722 8.47939 2.18722H11.3357V7.75007ZM15.5199 7.75007H12.6636V2.18722H15.5199C17.0561 2.18722 18.3013 3.4325 18.3013 4.96865C18.3013 6.5048 17.0561 7.75007 15.5199 7.75007Z" fill="#8F9090"/>
</svg>
